<svg xmlns="http://www.w3.org/2000/svg" viewBox="0 0 1080 240"><rect width="1080" height="240" fill="#fff"/><path d="M105.44 76.0H121.88Q127.28 76.0 131.95999999999998 77.44Q136.64 78.88000000000001 139.94 81.7Q143.24 84.52 145.16 88.72Q147.07999999999998 92.92 147.07999999999998 98.56Q147.07999999999998 104.08000000000001 144.56 109.30000000000001Q142.04 114.52000000000001 137.54 117.88000000000001Q133.04 121.24000000000001 126.92 121.48Q129.56 122.44 132.2 125.2Q134.84 127.96000000000001 136.76 130.6Q136.76 130.72 138.26 132.88Q139.76 135.04 142.04 138.22Q144.32 141.4 146.66 144.51999999999998Q149.0 147.64 150.8 149.68Q153.2 152.56 155.54 154.54000000000002Q157.88 156.52 160.57999999999998 157.66000000000003Q163.28 158.8 166.64 158.8V160.0H158.24Q152.48000000000002 160.0 148.04000000000002 158.5Q143.6 157.0 140.36 154.42000000000002Q137.12 151.84 134.84 148.84Q134.36 148.0 132.86 145.72Q131.36 143.44 129.5 140.5Q127.64 137.56 125.84 134.68Q124.03999999999999 131.8 122.72 129.7Q121.4 127.6 121.03999999999999 127.0Q119.0 123.75999999999999 116.48 121.41999999999999Q113.96000000000001 119.08 110.96 118.96000000000001V117.76Q111.08 117.76 112.69999999999999 117.82Q114.32 117.88 116.47999999999999 117.76Q119.6 117.64 123.14 116.68Q126.68 115.72 129.62 112.96000000000001Q132.56 110.2 134.0 104.80000000000001Q134.36 103.6 134.54000000000002 101.8Q134.72 100.0 134.6 98.08000000000001Q134.48 89.8 130.45999999999998 85.18Q126.44 80.56 119.96000000000001 80.32000000000001Q117.19999999999999 80.08 114.19999999999999 80.14Q111.2 80.2 109.03999999999999 80.2Q106.88 80.2 106.64 80.2Q106.64 80.08 106.34 79.06Q106.03999999999999 78.04 105.74 77.02000000000001Q105.44 76.0 105.44 76.0ZM107.0 76.0V160.0H95.84V76.0ZM96.2 151.24V160.0H86.6V158.8Q86.6 158.8 87.38 158.8Q88.16 158.8 88.16 158.8Q91.28 158.8 93.5 156.58Q95.72 154.36 95.84 151.24ZM96.2 84.76H95.84Q95.72 81.64 93.5 79.42Q91.28 77.2 88.16 77.2Q88.16 77.2 87.38 77.2Q86.6 77.2 86.6 77.2V76.0H96.2ZM106.64 151.24H107.0Q107.0 154.36 109.28 156.58Q111.56 158.8 114.68 158.8Q114.8 158.8 115.46000000000001 158.8Q116.12 158.8 116.12 158.8V160.0H106.64Z" fill="#1A1A1A"/><path d="M213.8 76.36V160.0H202.64V76.36ZM244.16 75.88000000000001V79.96000000000001H172.28V75.88000000000001ZM244.16 79.60000000000001V90.76L242.96 90.64V88.84Q242.96 85.0 240.5 82.53999999999999Q238.04000000000002 80.08 234.2 79.96000000000001V79.60000000000001ZM244.16 73.72V77.2L229.52 75.88000000000001Q232.16 75.88000000000001 235.10000000000002 75.52000000000001Q238.04000000000002 75.16 240.56 74.68Q243.07999999999998 74.2 244.16 73.72ZM203.0 151.24V160.0H193.4V158.8Q193.4 158.8 194.18 158.8Q194.96 158.8 194.96 158.8Q198.08 158.8 200.3 156.58Q202.52 154.36 202.64 151.24ZM213.44 151.24H213.8Q213.92000000000002 154.36 216.14000000000001 156.58Q218.36 158.8 221.48000000000002 158.8Q221.48000000000002 158.8 222.26 158.8Q223.04 158.8 223.04 158.8V160.0H213.44ZM182.24 79.60000000000001V79.96000000000001Q178.4 80.08 175.94 82.53999999999999Q173.48000000000002 85.0 173.48000000000002 88.84V90.64L172.28 90.76V79.60000000000001ZM172.28 73.72Q173.48000000000002 74.2 175.94 74.68Q178.4 75.16 181.4 75.52000000000001Q184.4 75.88000000000001 186.92000000000002 75.88000000000001L172.28 77.2Z" fill="#1A1A1A"/><path d="M291.91999999999996 74.08 328.76 159.28H314.71999999999997L287.96 89.44ZM266.12 151.24Q265.28 153.64 265.88 155.32Q266.47999999999996 157.0 267.86 157.9Q269.24 158.8 270.68 158.8H271.76V160.0H247.16V158.8Q247.16 158.8 247.7 158.8Q248.23999999999998 158.8 248.23999999999998 158.8Q250.99999999999997 158.8 253.94 157.06Q256.88 155.32 258.79999999999995 151.24ZM291.91999999999996 74.08 292.88 84.52 262.88 159.64H255.07999999999998L285.91999999999996 87.52Q286.03999999999996 87.28 286.81999999999994 85.66Q287.59999999999997 84.04 288.5 81.76Q289.4 79.48 290.12 77.32Q290.84 75.16 290.84 74.08ZM307.4 128.68V132.76H270.68V128.68ZM311.59999999999997 151.24H325.15999999999997Q327.08 155.32 330.02 157.06Q332.96 158.8 335.71999999999997 158.8Q335.71999999999997 158.8 336.19999999999993 158.8Q336.67999999999995 158.8 336.67999999999995 158.8V160.0H305.96V158.8H307.03999999999996Q309.44 158.8 311.24 156.82Q313.03999999999996 154.84 311.59999999999997 151.24Z" fill="#1A1A1A"/><path d="M437.24 74.32000000000001 438.2 84.04 406.28 149.32Q406.28 149.32 405.26 151.42000000000002Q404.24 153.52 403.22 156.4Q402.2 159.28 401.96 161.92H400.76L398.12 153.4ZM360.92 151.24V160.0H347.59999999999997V158.8Q347.71999999999997 158.8 348.62 158.8Q349.52 158.8 349.52 158.8Q352.76 158.8 355.28 156.82Q357.8 154.84 358.28 151.24ZM365.0 153.16Q365.0 153.28 365.0 153.4Q365.0 153.52 365.0 153.76Q365.0 155.68 366.38 157.3Q367.76 158.92 369.68 158.92H371.48V160.0H364.15999999999997V153.16ZM367.64 74.32000000000001H368.71999999999997L371.71999999999997 83.08L364.4 160.0H357.2ZM368.71999999999997 74.32000000000001 404.84 145.6 400.76 161.92 366.2 92.8ZM438.32 74.32000000000001 449.0 160.0H436.28L429.91999999999996 93.16L437.24 74.32000000000001ZM445.4 151.24H447.91999999999996Q448.52 154.84 451.03999999999996 156.82Q453.56 158.8 456.68 158.8Q456.68 158.8 457.64 158.8Q458.59999999999997 158.8 458.59999999999997 158.8V160.0H445.4ZM435.68 153.16H436.52V160.0H429.2V158.92H431.0Q433.03999999999996 158.92 434.36 157.3Q435.68 155.68 435.68 153.76Q435.68 153.52 435.68 153.4Q435.68 153.28 435.68 153.16Z" fill="#1A1A1A"/><path d="M552.524 116.6V160.0H548.494V116.6ZM566.598 137.68V139.54H552.338V137.68ZM569.264 116.6V118.52199999999999H552.338V116.6ZM566.598 139.416V143.508H565.978V142.578Q565.978 141.338 565.1099999999999 140.439Q564.242 139.54 563.002 139.54V139.416ZM566.598 133.712V137.804H563.002V137.68Q564.242 137.618 565.1099999999999 136.719Q565.978 135.82 565.978 134.58V133.712ZM569.264 118.336V122.49000000000001H568.644V121.56Q568.644 120.32 567.745 119.42099999999999Q566.846 118.52199999999999 565.606 118.52199999999999V118.336ZM569.264 115.48400000000001V117.28200000000001L561.7 116.6Q563.064 116.6 564.583 116.414Q566.102 116.22800000000001 567.404 115.98Q568.706 115.732 569.264 115.48400000000001ZM548.68 155.474V160.0H543.72V159.38Q543.72 159.38 544.123 159.38Q544.526 159.38 544.526 159.38Q546.138 159.38 547.2850000000001 158.233Q548.432 157.086 548.494 155.474ZM548.68 121.126H548.494Q548.494 119.51400000000001 547.316 118.367Q546.138 117.22 544.526 117.22Q544.526 117.22 544.154 117.22Q543.782 117.22 543.782 117.22L543.72 116.6H548.68ZM552.338 155.474H552.524Q552.586 157.086 553.733 158.233Q554.88 159.38 556.492 159.38Q556.492 159.38 556.864 159.38Q557.236 159.38 557.298 159.38V160.0H552.338Z" fill="#1A1A1A"/><path d="M604.606 121.932Q608.9459999999999 121.932 612.759 123.327Q616.572 124.72200000000001 619.4549999999999 127.32600000000001Q622.338 129.93 623.95 133.495Q625.562 137.06 625.562 141.4Q625.562 145.74 623.95 149.305Q622.338 152.87 619.4549999999999 155.474Q616.572 158.078 612.759 159.473Q608.9459999999999 160.868 604.606 160.868Q600.266 160.868 596.4839999999999 159.473Q592.702 158.078 589.819 155.474Q586.9359999999999 152.87 585.324 149.305Q583.712 145.74 583.712 141.4Q583.712 137.06 585.324 133.495Q586.9359999999999 129.93 589.819 127.32600000000001Q592.702 124.72200000000001 596.4839999999999 123.327Q600.266 121.932 604.606 121.932ZM604.606 159.008Q609.194 159.008 612.914 156.776Q616.634 154.544 618.804 150.57600000000002Q620.9739999999999 146.608 620.9739999999999 141.4Q620.9739999999999 136.13 618.804 132.19299999999998Q616.634 128.256 612.914 126.024Q609.194 123.792 604.606 123.792Q600.0799999999999 123.792 596.3599999999999 126.024Q592.64 128.256 590.47 132.19299999999998Q588.3 136.13 588.3 141.4Q588.3 146.608 590.47 150.57600000000002Q592.64 154.544 596.3599999999999 156.776Q600.0799999999999 159.008 604.606 159.008Z" fill="#1A1A1A"/><path d="M646.3340000000001 122.8V146.236Q646.3340000000001 152.25 649.403 155.72199999999998Q652.472 159.194 657.804 159.194Q663.694 159.194 667.073 155.90800000000002Q670.452 152.622 670.452 146.918V122.8H673.304V146.918Q673.304 153.36599999999999 669.181 157.117Q665.058 160.868 657.866 160.868Q650.736 160.868 646.5509999999999 157.148Q642.366 153.428 642.366 146.98V122.8ZM642.49 122.8V126.086H642.366Q642.304 124.97 641.467 124.195Q640.63 123.42 639.39 123.42Q639.39 123.42 638.925 123.42Q638.46 123.42 638.46 123.42V122.8ZM650.24 122.8V123.42Q650.24 123.42 649.7750000000001 123.42Q649.3100000000001 123.42 649.3100000000001 123.42Q648.1320000000001 123.42 647.2330000000001 124.195Q646.3340000000001 124.97 646.3340000000001 126.086H646.21V122.8ZM670.576 122.8V126.086H670.452Q670.452 124.97 669.5840000000001 124.195Q668.716 123.42 667.476 123.42Q667.476 123.42 667.011 123.42Q666.546 123.42 666.546 123.42V122.8ZM677.21 122.8V123.42Q677.21 123.42 676.745 123.42Q676.28 123.42 676.28 123.42Q675.102 123.42 674.2339999999999 124.195Q673.366 124.97 673.304 126.086H673.1800000000001V122.8Z" fill="#1A1A1A"/><path d="M694.076 121.87 728.424 154.234 729.044 160.868 694.696 128.318ZM694.2 156.156V160.0H689.55V159.38Q689.55 159.38 690.077 159.38Q690.604 159.38 690.604 159.38Q692.03 159.38 693.0219999999999 158.45Q694.014 157.52 694.014 156.156ZM696.804 156.156Q696.804 157.52 697.827 158.45Q698.85 159.38 700.2139999999999 159.38Q700.2139999999999 159.38 700.741 159.38Q701.268 159.38 701.268 159.38V160.0H696.6179999999999V156.156ZM694.076 121.87 696.742 125.342 696.804 160.0H694.014V129.62Q694.014 126.458 693.735 124.164Q693.456 121.87 693.456 121.87ZM729.044 122.8V152.932Q729.044 154.916 729.168 156.745Q729.292 158.574 729.447 159.721Q729.602 160.868 729.602 160.868H729.044L726.316 157.582V122.8ZM728.858 126.644V122.8H733.508V123.42Q733.508 123.42 732.981 123.42Q732.454 123.42 732.454 123.42Q731.09 123.42 730.067 124.35Q729.044 125.28 729.044 126.644ZM726.316 126.644Q726.254 125.28 725.262 124.35Q724.27 123.42 722.844 123.42Q722.844 123.42 722.317 123.42Q721.79 123.42 721.79 123.42V122.8H726.44V126.644Z" fill="#1A1A1A"/><path d="M767.796 122.8Q773.934 122.8 778.3979999999999 125.03200000000001Q782.862 127.26400000000001 785.28 131.449Q787.698 135.63400000000001 787.698 141.4Q787.698 147.166 785.28 151.32Q782.862 155.474 778.3979999999999 157.737Q773.934 160.0 767.796 160.0H754.59L754.466 158.14Q758.806 158.14 761.751 158.14Q764.696 158.14 766.2460000000001 158.14Q767.796 158.14 767.796 158.14Q774.9879999999999 158.14 779.111 153.64499999999998Q783.234 149.15 783.234 141.4Q783.234 133.65 779.111 129.155Q774.9879999999999 124.66 767.796 124.66Q767.796 124.66 766.184 124.66Q764.572 124.66 761.472 124.66Q758.372 124.66 753.846 124.66V122.8ZM755.458 122.8V160.0H751.428V122.8ZM751.552 155.97V160.0H747.088V159.38Q747.088 159.38 747.491 159.38Q747.894 159.38 747.894 159.38Q749.382 159.38 750.374 158.357Q751.366 157.334 751.428 155.97ZM751.552 126.83H751.428Q751.366 125.342 750.3430000000001 124.381Q749.32 123.42 747.832 123.42Q747.832 123.42 747.46 123.42Q747.088 123.42 747.088 123.42V122.8H751.552Z" fill="#1A1A1A"/><path d="M818.6999999999999 121.932 835.7499999999999 159.628H830.852L817.646 127.45ZM806.7339999999999 155.474Q806.0519999999999 157.334 806.9199999999998 158.357Q807.7879999999999 159.38 808.9039999999999 159.38H809.4V160.0H797.558V159.38Q797.558 159.38 797.806 159.38Q798.054 159.38 798.054 159.38Q799.356 159.38 800.72 158.481Q802.084 157.582 803.0759999999999 155.474ZM818.6999999999999 121.932 819.1339999999999 126.21000000000001 804.9359999999999 159.814H801.03L815.7239999999999 128.318Q815.7239999999999 128.318 816.0649999999999 127.57400000000001Q816.406 126.83 816.8709999999999 125.745Q817.3359999999999 124.66 817.7079999999999 123.606Q818.0799999999999 122.55199999999999 818.1419999999999 121.932ZM826.016 145.554V147.414H809.5859999999999V145.554ZM829.1779999999999 155.474H833.89Q834.8199999999999 157.582 836.184 158.481Q837.5479999999999 159.38 838.7879999999999 159.38Q838.7879999999999 159.38 839.0359999999998 159.38Q839.2839999999999 159.38 839.2839999999999 159.38V160.0H826.574V159.38H827.0699999999999Q828.1239999999999 159.38 828.992 158.357Q829.8599999999999 157.334 829.1779999999999 155.474Z" fill="#1A1A1A"/><path d="M862.598 122.98599999999999V160.0H858.5679999999999V122.98599999999999ZM877.6019999999999 122.738V124.598H843.5639999999999V122.738ZM877.6019999999999 124.474V128.752H876.9199999999998V127.75999999999999Q876.9199999999998 126.458 876.0829999999999 125.559Q875.2459999999999 124.66 873.8199999999999 124.598V124.474ZM877.6019999999999 121.74600000000001V123.358L870.6579999999999 122.738Q871.8979999999999 122.738 873.2929999999999 122.583Q874.6879999999999 122.428 875.8659999999999 122.18Q877.0439999999999 121.932 877.6019999999999 121.74600000000001ZM858.6919999999999 156.032V160.0H854.1659999999999V159.38Q854.228 159.38 854.569 159.38Q854.9099999999999 159.38 854.9099999999999 159.38Q856.3979999999999 159.38 857.4519999999999 158.38799999999998Q858.5059999999999 157.396 858.5679999999999 156.032ZM862.4119999999999 156.032H862.598Q862.6599999999999 157.396 863.7139999999999 158.38799999999998Q864.7679999999999 159.38 866.2559999999999 159.38Q866.2559999999999 159.38 866.5969999999999 159.38Q866.9379999999999 159.38 866.9379999999999 159.38V160.0H862.4119999999999ZM847.3459999999999 124.474V124.598Q845.9199999999998 124.66 845.0829999999999 125.559Q844.2459999999999 126.458 844.2459999999999 127.75999999999999V128.752H843.5639999999999V124.474ZM843.5639999999999 121.74600000000001Q844.122 121.932 845.269 122.18Q846.4159999999999 122.428 847.8419999999999 122.583Q849.2679999999999 122.738 850.5079999999999 122.738L843.5639999999999 123.358Z" fill="#1A1A1A"/><path d="M898.8699999999999 122.8V160.0H894.9639999999999V122.8ZM895.1499999999999 156.032V160.0H889.8799999999999V159.38Q889.8799999999999 159.38 890.3139999999999 159.38Q890.7479999999999 159.38 890.7479999999999 159.38Q892.4839999999999 159.38 893.693 158.38799999999998Q894.9019999999999 157.396 894.9639999999999 156.032ZM898.684 156.032H898.8699999999999Q898.9319999999999 157.396 900.1409999999998 158.38799999999998Q901.3499999999999 159.38 903.0859999999999 159.38Q903.0859999999999 159.38 903.4889999999999 159.38Q903.8919999999999 159.38 903.8919999999999 159.38L903.954 160.0H898.684ZM898.684 126.768V122.8H903.954L903.8919999999999 123.42Q903.8919999999999 123.42 903.4889999999999 123.42Q903.0859999999999 123.42 903.0859999999999 123.42Q901.3499999999999 123.42 900.1409999999998 124.381Q898.9319999999999 125.342 898.8699999999999 126.768ZM895.1499999999999 126.768H894.9639999999999Q894.9019999999999 125.342 893.693 124.381Q892.4839999999999 123.42 890.7479999999999 123.42Q890.6859999999999 123.42 890.2829999999999 123.42Q889.8799999999999 123.42 889.8799999999999 123.42V122.8H895.1499999999999Z" fill="#1A1A1A"/><path d="M938.366 121.932Q942.7059999999999 121.932 946.519 123.327Q950.332 124.72200000000001 953.2149999999999 127.32600000000001Q956.098 129.93 957.71 133.495Q959.322 137.06 959.322 141.4Q959.322 145.74 957.71 149.305Q956.098 152.87 953.2149999999999 155.474Q950.332 158.078 946.519 159.473Q942.7059999999999 160.868 938.366 160.868Q934.026 160.868 930.2439999999999 159.473Q926.462 158.078 923.579 155.474Q920.6959999999999 152.87 919.084 149.305Q917.472 145.74 917.472 141.4Q917.472 137.06 919.084 133.495Q920.6959999999999 129.93 923.579 127.32600000000001Q926.462 124.72200000000001 930.2439999999999 123.327Q934.026 121.932 938.366 121.932ZM938.366 159.008Q942.954 159.008 946.674 156.776Q950.394 154.544 952.564 150.57600000000002Q954.7339999999999 146.608 954.7339999999999 141.4Q954.7339999999999 136.13 952.564 132.19299999999998Q950.394 128.256 946.674 126.024Q942.954 123.792 938.366 123.792Q933.8399999999999 123.792 930.1199999999999 126.024Q926.4 128.256 924.23 132.19299999999998Q922.06 136.13 922.06 141.4Q922.06 146.608 924.23 150.57600000000002Q926.4 154.544 930.1199999999999 156.776Q933.8399999999999 159.008 938.366 159.008Z" fill="#1A1A1A"/><path d="M976.746 121.87 1011.0939999999999 154.234 1011.7139999999999 160.868 977.366 128.318ZM976.87 156.156V160.0H972.2199999999999V159.38Q972.2199999999999 159.38 972.747 159.38Q973.274 159.38 973.274 159.38Q974.6999999999999 159.38 975.692 158.45Q976.684 157.52 976.684 156.156ZM979.4739999999999 156.156Q979.4739999999999 157.52 980.497 158.45Q981.52 159.38 982.8839999999999 159.38Q982.8839999999999 159.38 983.411 159.38Q983.938 159.38 983.938 159.38V160.0H979.288V156.156ZM976.746 121.87 979.4119999999999 125.342 979.4739999999999 160.0H976.684V129.62Q976.684 126.458 976.405 124.164Q976.126 121.87 976.126 121.87ZM1011.7139999999999 122.8V152.932Q1011.7139999999999 154.916 1011.838 156.745Q1011.962 158.574 1012.117 159.721Q1012.2719999999999 160.868 1012.2719999999999 160.868H1011.7139999999999L1008.986 157.582V122.8ZM1011.5279999999999 126.644V122.8H1016.178V123.42Q1016.178 123.42 1015.651 123.42Q1015.1239999999999 123.42 1015.1239999999999 123.42Q1013.76 123.42 1012.737 124.35Q1011.7139999999999 125.28 1011.7139999999999 126.644ZM1008.986 126.644Q1008.924 125.28 1007.932 124.35Q1006.9399999999999 123.42 1005.5139999999999 123.42Q1005.5139999999999 123.42 1004.9869999999999 123.42Q1004.4599999999999 123.42 1004.4599999999999 123.42V122.8H1009.1099999999999V126.644Z" fill="#1A1A1A"/><circle cx="118" cy="188" r="10" fill="#C8A15A"/></svg>