<svg xmlns="http://www.w3.org/2000/svg" viewBox="0 0 240 240"><rect width="240" height="240" fill="#fff"/><path d="M96.19999694824219 76.0H121.87999725341797Q127.27999877929688 76.0 131.95999908447266 77.43999862670898Q136.63999938964844 78.87999725341797 139.94000244140625 81.69999694824219Q143.24000549316406 84.5199966430664 145.16000366210938 88.71999740600586Q147.0800018310547 92.91999816894531 147.0800018310547 98.55999755859375Q147.0800018310547 103.02620697021484 145.43031311035156 107.29603576660156C143.7997589111328 106.46720123291016 141.95445251464844 106.0 140.0 106.0C137.2609100341797 106.0 134.7362060546875 106.91764068603516 132.71653747558594 108.46227264404297Q133.46267700195312 106.81494140625 134.0 104.80000305175781Q134.36000061035156 103.5999984741211 134.54000091552734 101.79999923706055Q134.72000122070312 100.0 134.60000610351562 98.08000183105469Q134.47999572753906 89.80000305175781 130.45999908447266 85.18000030517578Q126.44000244140625 80.55999755859375 119.95999908447266 80.31999969482422Q117.19999694824219 80.08000183105469 114.19999694824219 80.13999938964844Q111.19999694824219 80.19999694824219 109.03999328613281 80.19999694824219H107.0V151.24000549316406Q107.0 154.36000061035156 109.27999877929688 156.5800018310547Q111.55999755859375 158.8000030517578 114.68000030517578 158.8000030517578H116.12000274658203V160.0H86.5999984741211V158.8000030517578H88.16000366210938Q91.27999877929688 158.8000030517578 93.5 156.5800018310547Q95.72000122070312 154.36000061035156 95.83999633789062 151.24000549316406V84.76000213623047Q95.72000122070312 81.63999938964844 93.5 79.41999816894531Q91.27999877929688 77.19999694824219 88.16000366210938 77.19999694824219H86.5999984741211V76.0H96.19999694824219ZM128.7986602783203 113.68620300292969C128.28280639648438 115.02490997314453 128.0 116.47941589355469 128.0 118.0C128.0 119.16835021972656 128.16696166992188 120.29769134521484 128.4783172607422 121.36547088623047Q127.71269989013672 121.44891357421875 126.91999816894531 121.4800033569336Q127.87910461425781 121.82877349853516 128.83824157714844 122.41513061523438C130.07174682617188 125.53108215332031 132.572265625 128.00726318359375 135.70443725585938 129.20834350585938Q136.2570037841797 129.90838623046875 136.75999450683594 130.60000610351562Q136.75999450683594 130.72000122070312 138.25999450683594 132.87999725341797Q139.75999450683594 135.0399932861328 142.04000091552734 138.2199935913086Q144.32000732421875 141.39999389648438 146.66000366210938 144.5199966430664Q149.0 147.63999938964844 150.8000030517578 149.67999267578125Q153.1999969482422 152.55999755859375 155.54000091552734 154.54000091552734Q157.8800048828125 156.52000427246094 160.5800018310547 157.66000366210938Q163.27999877929688 158.8000030517578 166.63999938964844 158.8000030517578V160.0H158.24000549316406Q152.47999572753906 160.0 148.04000091552734 158.5Q143.60000610351562 157.0 140.36000061035156 154.4199981689453Q137.1199951171875 151.83999633789062 134.83999633789062 148.83999633789062Q134.36000061035156 148.0 132.86000061035156 145.72000122070312Q131.36000061035156 143.44000244140625 129.5 140.5Q127.63999938964844 137.55999755859375 125.84000015258789 134.68000030517578Q124.04000091552734 131.8000030517578 122.72000122070312 129.70000076293945Q121.4000015258789 127.5999984741211 121.04000091552734 127.0Q119.0 123.76000213623047 116.47999954223633 121.42000198364258Q113.95999908447266 119.08000183105469 110.95999908447266 118.95999908447266V117.76000213623047Q111.08000183105469 117.76000213623047 112.70000076293945 117.81999969482422Q114.31999969482422 117.87999725341797 116.4800033569336 117.76000213623047Q119.5999984741211 117.63999938964844 123.13999938964844 116.68000030517578Q126.19236755371094 115.85224151611328 128.7986602783203 113.68620300292969Z" fill="#1A1A1A"/></svg>