<svg xmlns="http://www.w3.org/2000/svg" viewBox="0 0 774.61 260"><rect width="774.61" height="260" fill="#fff"/><path d="M138.76 173.08Q132.38 173.08 128.2 170.385Q124.02 167.69 121.985 163.95Q119.95 160.21 119.95 157.35Q119.95 152.84 124.02000000000001 149.485Q128.09 146.13 136.89 143.82Q136.23000000000002 142.06 135.35000000000002 140.35500000000002Q134.47 138.65 133.48000000000002 136.67000000000002Q130.29000000000002 137.99 126.77000000000001 138.70499999999998Q123.25 139.42 120.39 139.42Q118.52000000000001 139.42 116.265 139.255Q114.00999999999999 139.09 111.37 138.65L111.47999999999999 171.1H110.38L101.58 165.38L101.69 143.27L75.73 161.2L69.24 154.82L99.71000000000001 135.02Q93.66 130.51 90.305 128.42Q86.95 126.33 84.31 126.33Q81.45 126.33 77.435 128.365Q73.42 130.4 69.68 132.27L63.85 124.68V124.13Q68.69 122.03999999999999 73.09 120.16999999999999Q77.49 118.3 80.9 118.3Q83.76 118.3 86.23500000000001 119.455Q88.71000000000001 120.61 92.23 123.36Q95.75 126.11 101.8 131.06L102.02000000000001 110.05H60.66L56.92 102.9V101.8H152.95L156.69 108.95V110.05H111.25999999999999L111.37 133.59H113.9Q119.07 133.59 122.755 132.05Q126.44 130.51 128.31 128.64Q127.1 126.33 126.44 124.515Q125.78 122.7 125.78 121.05Q125.78 119.07 126.77000000000001 118.3Q127.76 117.53 129.51999999999998 117.53Q131.82999999999998 117.53 134.855 118.905Q137.88 120.28 140.07999999999998 122.535Q142.28 124.78999999999999 142.28 127.53999999999999Q142.28 129.41 141.235 131.005Q140.19 132.6 138.43 133.92000000000002Q140.63 137.66 142.445 141.345Q144.26 145.03 146.13 149.76L145.91 150.31Q137.66 151.96 133.58999999999997 153.775Q129.51999999999998 155.59 128.255 157.35000000000002Q126.99 159.11 126.99 160.76Q126.99 162.3 128.475 163.95Q129.95999999999998 165.6 134.36 165.6Q137.11 165.6 140.35500000000002 164.72Q143.6 163.84 147.67000000000002 161.53L153.17000000000002 168.57Q151.41 169.78 147.67000000000002 171.43Q143.93 173.08 138.76 173.08Z" fill="#1A1A1A"/><path d="M178.14000000000001 171.1H177.04000000000002Q169.23000000000002 160.98 164.06 152.83999999999997Q158.89000000000001 144.7 158.89000000000001 137.66Q158.89000000000001 129.52 165.21500000000003 125.83500000000001Q171.54000000000002 122.15 181.99 122.15H197.5L197.61 110.05H154.27L150.53 102.9V101.8H215.98000000000002L219.72000000000003 108.95V110.05H206.85000000000002L207.07000000000002 171.1H205.97000000000003L197.17000000000002 165.38L197.39000000000001 130.4H183.20000000000002Q175.17000000000002 130.4 171.26500000000001 133.97500000000002Q167.36 137.55 167.36 142.72Q167.36 145.14 168.07500000000002 147.33999999999997Q168.79000000000002 149.54 170.495 152.18Q172.20000000000002 154.82 175.22500000000002 158.39499999999998Q178.25 161.97 182.87 167.25Z" fill="#1A1A1A"/><path d="M237.98000000000002 154.82Q236.33 154.82 233.745 153.115Q231.16000000000003 151.41 228.57500000000002 148.76999999999998Q225.99 146.13 224.23000000000002 143.325Q222.47000000000003 140.52 222.47000000000003 138.43Q222.47000000000003 137.44 223.13000000000002 136.67000000000002Q223.79000000000002 135.9 225.22000000000003 135.9H231.16000000000003L231.27 110.05H217.3L213.56 102.9V101.8H256.57Q256.79 101.69 257.12 101.58Q259.76 100.37 262.51 100.37Q266.69 100.37 270.43 102.405Q274.17 104.44 277.08500000000004 107.85Q280.0 111.25999999999999 281.65 115.33Q283.3 119.4 283.3 123.36Q283.3 126.22 283.19000000000005 129.63Q283.08000000000004 133.04 282.97 135.9H304.53000000000003L304.75 110.05H289.35L285.61 102.9V101.8H323.12L326.86 108.95V110.05H313.99L314.21000000000004 171.1H313.11L304.31 165.38L304.42 144.15H282.20000000000005Q281.54 149.98 280.93500000000006 152.39999999999998Q280.33000000000004 154.82 278.24 154.82Q276.48 154.82 273.895 153.115Q271.31 151.41 268.78000000000003 148.77Q266.58000000000004 146.46 265.04 144.15H240.51000000000002V152.07Q240.51000000000002 154.82 237.98000000000002 154.82ZM265.70000000000005 135.9H273.40000000000003Q273.95000000000005 130.73 274.17 127.42999999999999Q274.39 124.13 274.39 120.61Q274.39 113.24000000000001 272.40999999999997 110.655Q270.43 108.07 266.58000000000004 108.07Q263.83000000000004 108.07 261.63 109.72Q259.43 111.37 259.43 114.23Q259.43 117.09 261.74 118.96000000000001Q264.05 120.83 266.47 122.15V123.36Q265.37 123.47 264.875 123.525Q264.38 123.58 264.27000000000004 123.58Q257.89 123.58 254.37 119.72999999999999Q250.85000000000002 115.88 250.85000000000002 110.82Q250.85000000000002 110.38 250.85000000000002 110.05H240.29000000000002L240.4 135.9H265.37Q265.48 135.9 265.70000000000005 135.9Z" fill="#1A1A1A"/><path d="M359.20000000000005 172.2H358.1L336.32000000000005 145.47Q332.25000000000006 140.52 330.5450000000001 137.385Q328.84000000000003 134.25 328.84000000000003 132.38Q328.84000000000003 128.86 334.45000000000005 128.86Q336.1 128.86 338.96000000000004 129.08Q341.82000000000005 129.3 343.8 129.52Q344.35 126.77000000000001 344.515 123.19500000000001Q344.68 119.62 344.68 116.97999999999999Q344.68 114.67 344.625 113.02000000000001Q344.57000000000005 111.37 344.46000000000004 110.05H324.44000000000005L320.70000000000005 102.9V101.8H366.46000000000004L370.20000000000005 108.95V110.05H353.59000000000003Q353.70000000000005 112.14 353.81000000000006 114.67Q353.92 117.2 353.92 118.19Q353.92 127.21000000000001 352.6 132.49Q351.28000000000003 137.77 348.58500000000004 140.41000000000003Q345.89000000000004 143.05 341.93 143.93L364.81000000000006 167.58Z" fill="#1A1A1A"/><path d="M309.7 71.77 309.81 71.0Q314.1 70.23 317.18 70.01Q320.26 69.79 321.25 69.79Q326.86 69.79 331.70000000000005 73.97Q336.54 78.15 341.49 85.685Q346.44 93.22 352.27 103.12H346.33Q341.05 93.99 337.475 88.985Q333.9 83.98 331.15 81.945Q328.4 79.91 325.32 79.91Q323.56 79.91 320.42499999999995 80.24Q317.28999999999996 80.57 314.76 81.12Z" fill="#1A1A1A"/><path d="M377.35 146.79 370.53000000000003 139.75Q375.92 136.89 380.43 134.415Q384.94 131.94 388.68 129.41Q383.18 126.11 379.77 121.875Q376.36 117.64 376.36 112.58Q376.36 107.41 380.21000000000004 103.615Q384.06 99.82 390.33 99.82Q395.28000000000003 99.82 399.735 102.35Q404.19 104.88 406.94 109.005Q409.69 113.13 409.69 118.08Q409.69 122.03999999999999 407.82 124.955Q405.95 127.87 402.54 130.84Q407.93 132.6 413.925 133.64499999999998Q419.92 134.69 425.53000000000003 135.13L425.64 110.05H413.98L410.24 102.9V101.8H444.01L447.75 108.95V110.05H434.88L435.1 180.67H434.0L425.31 174.4V166.59Q422.89 168.02 420.47 168.68Q418.05 169.34 415.63 169.34Q409.91 169.34 405.235 166.59Q400.56 163.84 397.755 159.66Q394.95 155.48 394.95 151.07999999999998Q394.95 146.24 398.25 142.66500000000002Q401.55 139.09 406.61 137.22Q402.21000000000004 135.9 398.25 134.25Q393.96 137.44 388.515 140.51999999999998Q383.07 143.6 377.35 146.79ZM425.42 143.6Q424.54 143.49 423.55 143.435Q422.56 143.38 421.68 143.38Q412.99 143.38 408.04 146.95499999999998Q403.09000000000003 150.53 403.09000000000003 155.37Q403.09000000000003 158.89 405.51 160.595Q407.93 162.3 411.34000000000003 162.3Q414.42 162.3 418.105 160.705Q421.79 159.11 425.42 155.59ZM392.86 126.66Q398.03000000000003 123.03 400.12 120.28Q402.21000000000004 117.53 402.21000000000004 114.34Q402.21000000000004 111.03999999999999 400.01 109.06Q397.81 107.08 394.29 107.08Q390.55 107.08 387.635 109.555Q384.72 112.03 384.72 115.88Q384.72 119.18 386.92 121.875Q389.12 124.57 392.86 126.66Z" fill="#1A1A1A"/><path d="M480.09000000000003 172.2H478.99L457.21000000000004 145.47Q453.14000000000004 140.52 451.43500000000006 137.385Q449.73 134.25 449.73 132.38Q449.73 128.86 455.34000000000003 128.86Q456.99 128.86 459.85 129.08Q462.71000000000004 129.3 464.69 129.52Q465.24 126.77000000000001 465.405 123.19500000000001Q465.57 119.62 465.57 116.97999999999999Q465.57 114.67 465.515 113.02000000000001Q465.46000000000004 111.37 465.35 110.05H445.33000000000004L441.59000000000003 102.9V101.8H487.35L491.09000000000003 108.95V110.05H474.48Q474.59000000000003 112.14 474.70000000000005 114.67Q474.81 117.2 474.81 118.19Q474.81 127.21000000000001 473.49 132.49Q472.17 137.77 469.475 140.41000000000003Q466.78000000000003 143.05 462.82 143.93L485.70000000000005 167.58Z" fill="#1A1A1A"/><path d="M525.19 135.9H531.13L531.24 110.05H517.27L513.53 102.9V101.8H583.27L587.01 108.95V110.05H574.14L574.36 171.1H573.26L564.46 165.38L564.57 144.15H540.48V152.07Q540.48 154.82 537.95 154.82Q536.3000000000001 154.82 533.715 153.115Q531.13 151.41 528.5450000000001 148.76999999999998Q525.96 146.13 524.2 143.325Q522.44 140.52 522.44 138.43Q522.44 137.44 523.1 136.67000000000002Q523.76 135.9 525.19 135.9ZM564.9 110.05H540.26L540.37 135.9H564.6800000000001Z" fill="#1A1A1A"/><path d="M603.73 171.65H602.6300000000001L593.83 165.93L594.2700000000001 110.05H584.59L580.85 102.9V101.8H594.82Q592.84 98.72 591.96 95.695Q591.08 92.67 591.08 89.81Q591.08 85.41 593.335 81.66999999999999Q595.59 77.92999999999999 600.32 75.565Q605.0500000000001 73.2 612.2 73.2Q618.69 73.2 625.4000000000001 75.455Q632.11 77.71 639.7 82.77Q647.2900000000001 87.83 656.2 96.08L653.23 99.49Q647.4000000000001 94.54 641.24 90.525Q635.08 86.51 628.645 84.09Q622.21 81.67 615.61 81.67Q609.7800000000001 81.67 606.095 83.595Q602.4100000000001 85.52 600.76 88.49Q599.11 91.46 599.11 94.87Q599.11 96.74 599.605 98.39Q600.1 100.04 600.98 101.8H612.6400000000001L616.3800000000001 108.95V110.05H603.5100000000001Z" fill="#1A1A1A"/><path d="M666.8700000000001 180.78H665.8800000000001L655.7600000000001 163.07Q652.6800000000001 163.95 648.83 163.95Q643.11 163.95 637.83 161.58499999999998Q632.5500000000001 159.22 628.3700000000001 155.14999999999998Q624.19 151.07999999999998 621.77 145.96499999999997Q619.35 140.85 619.35 135.24Q619.35 129.52 622.2650000000001 126.33000000000001Q625.1800000000001 123.14 630.3500000000001 121.875Q635.5200000000001 120.61 642.45 120.61H650.7V110.05H613.96L610.22 102.9V101.8H670.6100000000001L674.35 108.95V110.05H659.72Q659.72 114.67 659.7750000000001 119.565Q659.83 124.46000000000001 659.83 127.97999999999999L658.5100000000001 128.86H643.0000000000001Q635.96 128.86 631.78 131.61Q627.6 134.36 627.6 139.97Q627.6 145.14 629.855 148.825Q632.11 152.51 635.6300000000001 154.435Q639.1500000000001 156.36 643.0000000000001 156.36Q644.98 156.36 647.235 155.97500000000002Q649.49 155.59 651.1400000000001 154.6Q649.82 151.96 648.9950000000001 149.76Q648.1700000000001 147.56 648.1700000000001 146.02Q648.1700000000001 144.15 649.2150000000001 143.325Q650.2600000000001 142.5 652.0200000000001 142.5Q654.5500000000001 142.5 657.6850000000001 143.93Q660.82 145.36 663.1850000000001 147.615Q665.5500000000001 149.87 665.5500000000001 152.51Q665.5500000000001 153.72 664.5600000000001 156.14Q663.57 158.56 660.71 160.65L672.59 177.15Z" fill="#1A1A1A"/><path d="M706.69 172.2H705.5900000000001L683.8100000000001 145.47Q679.7400000000001 140.52 678.0350000000001 137.385Q676.33 134.25 676.33 132.38Q676.33 128.86 681.94 128.86Q683.5900000000001 128.86 686.45 129.08Q689.3100000000001 129.3 691.2900000000001 129.52Q691.8400000000001 126.77000000000001 692.0050000000001 123.19500000000001Q692.1700000000001 119.62 692.1700000000001 116.97999999999999Q692.1700000000001 114.67 692.115 113.02000000000001Q692.0600000000001 111.37 691.95 110.05H671.9300000000001L668.19 102.9V101.8H713.95L717.69 108.95V110.05H701.08Q701.19 112.14 701.3000000000001 114.67Q701.4100000000001 117.2 701.4100000000001 118.19Q701.4100000000001 127.21000000000001 700.0900000000001 132.49Q698.7700000000001 137.77 696.075 140.41000000000003Q693.3800000000001 143.05 689.4200000000001 143.93L712.3000000000001 167.58Z" fill="#1A1A1A"/></svg>