<svg xmlns="http://www.w3.org/2000/svg" viewBox="0 0 749.86 260"><rect width="749.86" height="260" fill="#fff"/><path d="M138.76 173.08Q132.38 173.08 128.2 170.385Q124.02 167.69 121.985 163.95Q119.95 160.21 119.95 157.35Q119.95 152.84 124.02000000000001 149.485Q128.09 146.13 136.89 143.82Q136.23000000000002 142.06 135.35000000000002 140.35500000000002Q134.47 138.65 133.48000000000002 136.67000000000002Q130.29000000000002 137.99 126.77000000000001 138.70499999999998Q123.25 139.42 120.39 139.42Q118.52000000000001 139.42 116.265 139.255Q114.00999999999999 139.09 111.37 138.65L111.47999999999999 171.1H110.38L101.58 165.38L101.69 143.27L75.73 161.2L69.24 154.82L99.71000000000001 135.02Q93.66 130.51 90.305 128.42Q86.95 126.33 84.31 126.33Q81.45 126.33 77.435 128.365Q73.42 130.4 69.68 132.27L63.85 124.68V124.13Q68.69 122.03999999999999 73.09 120.16999999999999Q77.49 118.3 80.9 118.3Q83.76 118.3 86.23500000000001 119.455Q88.71000000000001 120.61 92.23 123.36Q95.75 126.11 101.8 131.06L102.02000000000001 110.05H60.66L56.92 102.9V101.8H152.95L156.69 108.95V110.05H111.25999999999999L111.37 133.59H113.9Q119.07 133.59 122.755 132.05Q126.44 130.51 128.31 128.64Q127.1 126.33 126.44 124.515Q125.78 122.7 125.78 121.05Q125.78 119.07 126.77000000000001 118.3Q127.76 117.53 129.51999999999998 117.53Q131.82999999999998 117.53 134.855 118.905Q137.88 120.28 140.07999999999998 122.535Q142.28 124.78999999999999 142.28 127.53999999999999Q142.28 129.41 141.235 131.005Q140.19 132.6 138.43 133.92000000000002Q140.63 137.66 142.445 141.345Q144.26 145.03 146.13 149.76L145.91 150.31Q137.66 151.96 133.58999999999997 153.775Q129.51999999999998 155.59 128.255 157.35000000000002Q126.99 159.11 126.99 160.76Q126.99 162.3 128.475 163.95Q129.95999999999998 165.6 134.36 165.6Q137.11 165.6 140.35500000000002 164.72Q143.6 163.84 147.67000000000002 161.53L153.17000000000002 168.57Q151.41 169.78 147.67000000000002 171.43Q143.93 173.08 138.76 173.08Z" fill="#1A1A1A"/><path d="M178.14000000000001 171.1H177.04000000000002Q169.23000000000002 160.98 164.06 152.83999999999997Q158.89000000000001 144.7 158.89000000000001 137.66Q158.89000000000001 129.52 165.21500000000003 125.83500000000001Q171.54000000000002 122.15 181.99 122.15H197.5L197.61 110.05H154.27L150.53 102.9V101.8H215.98000000000002L219.72000000000003 108.95V110.05H206.85000000000002L207.07000000000002 171.1H205.97000000000003L197.17000000000002 165.38L197.39000000000001 130.4H183.20000000000002Q175.17000000000002 130.4 171.26500000000001 133.97500000000002Q167.36 137.55 167.36 142.72Q167.36 145.14 168.07500000000002 147.33999999999997Q168.79000000000002 149.54 170.495 152.18Q172.20000000000002 154.82 175.22500000000002 158.39499999999998Q178.25 161.97 182.87 167.25Z" fill="#1A1A1A"/><path d="M225.22000000000003 135.9H231.16000000000003L231.27 110.05H217.3L213.56 102.9V101.8H283.3L287.04 108.95V110.05H274.17L274.39 171.1H273.29L264.49 165.38L264.6 144.15H240.51000000000002V152.07Q240.51000000000002 154.82 237.98000000000002 154.82Q236.33 154.82 233.745 153.115Q231.16000000000003 151.41 228.57500000000002 148.76999999999998Q225.99 146.13 224.23000000000002 143.325Q222.47000000000003 140.52 222.47000000000003 138.43Q222.47000000000003 137.44 223.13000000000002 136.67000000000002Q223.79000000000002 135.9 225.22000000000003 135.9ZM264.93 110.05H240.29000000000002L240.4 135.9H264.71000000000004Z" fill="#1A1A1A"/><path d="M260.20000000000005 174.51 260.42 173.85Q263.94000000000005 173.19 266.8 173.19Q270.43000000000006 173.19 273.84000000000003 174.565Q277.25000000000006 175.94 280.66 178.58Q282.09000000000003 179.68 285.5 182.65Q288.91 185.62 293.20000000000005 189.47Q297.49 193.32 301.56000000000006 197.28L297.82000000000005 201.46H297.05Q291.77000000000004 195.52 288.14000000000004 191.78Q284.51000000000005 188.04 281.87 186.005Q279.23 183.97 276.755 183.2Q274.28000000000003 182.43 271.31000000000006 182.43Q268.67 182.43 266.91 182.76Q265.15000000000003 183.09 264.27000000000004 183.2Z" fill="#1A1A1A"/><path d="M384.72 163.07H383.84000000000003L376.25000000000006 156.58Q380.1000000000001 152.07 382.68500000000006 146.625Q385.27000000000004 141.18 385.27000000000004 137.44Q385.27000000000004 134.91 383.51000000000005 133.26Q381.75000000000006 131.61 379.55000000000007 131.61Q376.58000000000004 131.61 371.9050000000001 134.36Q367.2300000000001 137.11 362.1700000000001 140.85L362.2800000000001 171.1H361.18000000000006L352.38000000000005 165.16L352.49000000000007 147.89Q349.74000000000007 149.76 347.48500000000007 150.64Q345.2300000000001 151.52 342.59000000000003 151.52Q338.63000000000005 151.52 334.83500000000004 149.595Q331.0400000000001 147.67 327.9050000000001 144.58999999999997Q324.77000000000004 141.51 322.845 138.155Q320.9200000000001 134.8 320.81000000000006 131.82999999999998Q320.70000000000005 130.29 320.70000000000005 128.97Q320.70000000000005 127.65 320.70000000000005 126.44Q320.70000000000005 123.25 320.75500000000005 118.795Q320.81000000000006 114.34 320.81000000000006 110.05H313.2200000000001L309.4800000000001 102.9V101.8H396.82000000000005L400.56000000000006 108.95V110.05H361.95000000000005L362.06000000000006 129.63Q367.45000000000005 126.0 370.5300000000001 124.68Q373.61000000000007 123.36 375.81000000000006 123.36Q377.7900000000001 123.36 380.5950000000001 124.68Q383.4000000000001 126.0 386.0950000000001 128.53Q388.7900000000001 131.06 390.55000000000007 134.85500000000002Q392.31000000000006 138.65 392.31000000000006 143.6Q392.31000000000006 148.66 390.38500000000005 153.28Q388.46000000000004 157.9 384.72 163.07ZM352.6000000000001 136.45 352.82000000000005 110.05H330.1600000000001L330.38000000000005 134.25Q330.38000000000005 139.42 332.74500000000006 141.89499999999998Q335.11000000000007 144.37 337.5300000000001 144.37Q340.7200000000001 144.37 344.2950000000001 142.17000000000002Q347.87000000000006 139.97 352.6000000000001 136.45Z" fill="#1A1A1A"/><path d="M429.93000000000006 110.05H417.06000000000006L417.2800000000001 171.65H416.18000000000006L407.38000000000005 165.93L407.82000000000005 110.05H398.1400000000001L394.4000000000001 102.9V101.8H426.19000000000005L429.93000000000006 108.95Z" fill="#1A1A1A"/><path d="M466.56000000000006 135.24Q464.1400000000001 135.24 460.9500000000001 136.395Q457.7600000000001 137.55 451.7100000000001 138.54L447.0900000000001 130.84V130.18Q455.6700000000001 128.42000000000002 460.3450000000001 126.825Q465.0200000000001 125.22999999999999 466.8900000000001 123.085Q468.7600000000001 120.94 468.7600000000001 117.97Q468.7600000000001 114.67 466.6700000000001 110.05H427.5100000000001L423.7700000000001 102.9V101.8H488.3400000000001L492.0800000000001 108.95V110.05H473.05000000000007Q474.4800000000001 112.8 475.5250000000001 115.715Q476.57000000000005 118.63 476.57000000000005 121.38Q476.57000000000005 124.02000000000001 475.47 126.385Q474.37000000000006 128.75 472.61000000000007 130.73Q477.6700000000001 134.57999999999998 480.9150000000001 139.695Q484.1600000000001 144.81 484.1600000000001 150.2Q484.1600000000001 154.82 481.74000000000007 158.83499999999998Q479.32000000000005 162.85 474.86500000000007 165.26999999999998Q470.4100000000001 167.69 464.25000000000006 167.69Q457.9800000000001 167.69 453.08500000000004 165.16Q448.19000000000005 162.63 444.17500000000007 158.34Q440.1600000000001 154.05 436.86000000000007 148.60500000000002Q433.56000000000006 143.16 430.5900000000001 137.32999999999998L434.7700000000001 134.91Q436.75000000000006 138.76 439.2800000000001 143.05Q441.81000000000006 147.34 445.00000000000006 151.07999999999998Q448.19000000000005 154.82 452.2600000000001 157.185Q456.3300000000001 159.55 461.50000000000006 159.55Q467.55000000000007 159.55 471.8400000000001 156.195Q476.1300000000001 152.84 476.1300000000001 147.12Q476.1300000000001 144.15 474.9200000000001 141.45499999999998Q473.7100000000001 138.76 471.56500000000005 137.0Q469.4200000000001 135.24 466.56000000000006 135.24Z" fill="#1A1A1A"/><path d="M456.99 78.92 464.69000000000005 86.62 456.99 94.1 449.40000000000003 86.62Z" fill="#1A1A1A"/><path d="M528.0500000000001 169.23Q517.3800000000001 169.23 507.81000000000006 162.07999999999998Q498.24000000000007 154.93 491.86000000000007 141.51L496.0400000000001 139.09Q499.01000000000005 144.92 503.0250000000001 149.925Q507.0400000000001 154.93 512.5400000000001 157.95499999999998Q518.0400000000001 160.98 525.4100000000001 160.98Q531.57 160.98 534.815 159.055Q538.0600000000001 157.13 539.27 154.435Q540.48 151.74 540.48 149.43Q540.48 147.56 539.3800000000001 146.405Q538.2800000000001 145.25 536.3000000000001 145.25Q534.21 145.25 530.7450000000001 145.91Q527.2800000000001 146.57 523.98 147.23Q520.6800000000001 147.89 518.8100000000001 147.89Q516.0600000000001 147.89 513.0350000000001 146.185Q510.01000000000005 144.48 507.37000000000006 141.675Q504.7300000000001 138.87 503.08000000000004 135.405Q501.43000000000006 131.94 501.43000000000006 128.42000000000002Q501.43000000000006 124.35 504.62000000000006 121.875Q507.81000000000006 119.4 514.5200000000001 119.4H531.9000000000001V110.05H489.6600000000001L485.9200000000001 102.9V101.8H551.8100000000001L555.5500000000001 108.95V110.05H540.8100000000001Q540.9200000000001 114.12 540.9750000000001 118.63Q541.0300000000001 123.14 541.0300000000001 126.77000000000001L539.71 127.65H516.5Q509.3500000000001 127.65 509.3500000000001 132.71Q509.3500000000001 136.12 511.2750000000001 138.04500000000002Q513.2 139.97 515.1800000000001 139.97Q516.1700000000001 139.97 518.48 139.53Q520.7900000000001 139.09 523.6500000000001 138.595Q526.5100000000001 138.1 529.1500000000001 137.66Q531.7900000000001 137.22 533.44 137.22Q536.5200000000001 137.22 539.875 139.75Q543.23 142.28 545.595 146.35Q547.96 150.42 547.96 154.93Q547.96 157.79 545.98 161.14499999999998Q544.0 164.5 539.6 166.865Q535.2 169.23 528.0500000000001 169.23Z" fill="#1A1A1A"/><path d="M496.92 71.77 497.03000000000003 71.0Q501.32000000000005 70.23 504.40000000000003 70.01Q507.48 69.79 508.47 69.79Q514.08 69.79 518.9200000000001 73.97Q523.76 78.15 528.71 85.685Q533.66 93.22 539.49 103.12H533.5500000000001Q528.27 93.99 524.6949999999999 88.985Q521.12 83.98 518.37 81.945Q515.62 79.91 512.54 79.91Q510.78000000000003 79.91 507.645 80.24Q504.51 80.57 501.98 81.12Z" fill="#1A1A1A"/><path d="M570.73 151.74Q566.88 151.74 563.965 150.035Q561.0500000000001 148.32999999999998 559.4000000000001 145.91Q557.75 143.49 557.75 141.29Q557.75 139.97 558.52 139.14499999999998Q559.2900000000001 138.32 561.71 138.32Q564.57 138.32 567.6500000000001 139.58499999999998Q570.73 140.85 573.59 142.72Q576.5600000000001 142.17 579.97 140.41Q583.38 138.65 585.8 135.845Q588.22 133.04 588.22 129.63Q588.22 126.55 586.02 124.29499999999999Q583.82 122.03999999999999 579.86 122.03999999999999Q577.11 122.03999999999999 572.215 123.58Q567.32 125.12 562.26 128.31L557.3100000000001 120.17Q561.6 117.53 565.78 116.265Q569.96 115.0 573.15 114.56V110.05H553.13L549.39 102.9V101.8H626.5L630.24 108.95V110.05H617.37L617.59 171.65H616.49L607.69 165.93L608.13 110.05H581.62L581.73 115.33Q585.9100000000001 116.75999999999999 588.9350000000001 119.72999999999999Q591.96 122.7 593.5 126.38499999999999Q595.0400000000001 130.07 595.0400000000001 133.37Q595.0400000000001 137.66 592.895 140.905Q590.75 144.15 587.395 146.405Q584.0400000000001 148.66 580.4100000000001 149.98L597.7900000000001 167.69L592.1800000000001 172.31H591.08L574.47 151.41Q572.49 151.74 570.73 151.74Z" fill="#1A1A1A"/><path d="M692.94 110.05H680.07L680.2900000000001 171.1H679.19L670.3900000000001 165.38L670.6100000000001 137.77H651.2500000000001Q651.2500000000001 144.15 650.5900000000001 146.68Q649.9300000000001 149.21 647.4000000000001 149.21Q645.09 149.21 642.45 147.78Q639.8100000000001 146.35 637.5550000000001 144.04Q635.3000000000001 141.73 633.8700000000001 138.98Q632.44 136.23 632.44 133.7Q632.44 130.62 634.9150000000001 129.905Q637.3900000000001 129.19 641.6800000000001 129.19Q643.6600000000001 129.19 648.1700000000001 129.245Q652.6800000000001 129.3 658.565 129.465Q664.45 129.63 670.6100000000001 129.74L670.83 110.05H627.82L624.08 102.9V101.8H689.2L692.94 108.95Z" fill="#1A1A1A"/></svg>