<svg xmlns="http://www.w3.org/2000/svg" viewBox="0 0 683.53 260"><rect width="683.53" height="260" fill="#fff"/><path d="M138.76 173.08Q132.38 173.08 128.2 170.385Q124.02 167.69 121.985 163.95Q119.95 160.21 119.95 157.35Q119.95 152.84 124.02000000000001 149.485Q128.09 146.13 136.89 143.82Q136.23000000000002 142.06 135.35000000000002 140.35500000000002Q134.47 138.65 133.48000000000002 136.67000000000002Q130.29000000000002 137.99 126.77000000000001 138.70499999999998Q123.25 139.42 120.39 139.42Q118.52000000000001 139.42 116.265 139.255Q114.00999999999999 139.09 111.37 138.65L111.47999999999999 171.1H110.38L101.58 165.38L101.69 143.27L75.73 161.2L69.24 154.82L99.71000000000001 135.02Q93.66 130.51 90.305 128.42Q86.95 126.33 84.31 126.33Q81.45 126.33 77.435 128.365Q73.42 130.4 69.68 132.27L63.85 124.68V124.13Q68.69 122.03999999999999 73.09 120.16999999999999Q77.49 118.3 80.9 118.3Q83.76 118.3 86.23500000000001 119.455Q88.71000000000001 120.61 92.23 123.36Q95.75 126.11 101.8 131.06L102.02000000000001 110.05H60.66L56.92 102.9V101.8H152.95L156.69 108.95V110.05H111.25999999999999L111.37 133.59H113.9Q119.07 133.59 122.755 132.05Q126.44 130.51 128.31 128.64Q127.1 126.33 126.44 124.515Q125.78 122.7 125.78 121.05Q125.78 119.07 126.77000000000001 118.3Q127.76 117.53 129.51999999999998 117.53Q131.82999999999998 117.53 134.855 118.905Q137.88 120.28 140.07999999999998 122.535Q142.28 124.78999999999999 142.28 127.53999999999999Q142.28 129.41 141.235 131.005Q140.19 132.6 138.43 133.92000000000002Q140.63 137.66 142.445 141.345Q144.26 145.03 146.13 149.76L145.91 150.31Q137.66 151.96 133.58999999999997 153.775Q129.51999999999998 155.59 128.255 157.35000000000002Q126.99 159.11 126.99 160.76Q126.99 162.3 128.475 163.95Q129.95999999999998 165.6 134.36 165.6Q137.11 165.6 140.35500000000002 164.72Q143.6 163.84 147.67000000000002 161.53L153.17000000000002 168.57Q151.41 169.78 147.67000000000002 171.43Q143.93 173.08 138.76 173.08Z" fill="#1A1A1A"/><path d="M178.14000000000001 171.1H177.04000000000002Q169.23000000000002 160.98 164.06 152.83999999999997Q158.89000000000001 144.7 158.89000000000001 137.66Q158.89000000000001 129.52 165.21500000000003 125.83500000000001Q171.54000000000002 122.15 181.99 122.15H197.5L197.61 110.05H154.27L150.53 102.9V101.8H215.98000000000002L219.72000000000003 108.95V110.05H206.85000000000002L207.07000000000002 171.1H205.97000000000003L197.17000000000002 165.38L197.39000000000001 130.4H183.20000000000002Q175.17000000000002 130.4 171.26500000000001 133.97500000000002Q167.36 137.55 167.36 142.72Q167.36 145.14 168.07500000000002 147.33999999999997Q168.79000000000002 149.54 170.495 152.18Q172.20000000000002 154.82 175.22500000000002 158.39499999999998Q178.25 161.97 182.87 167.25Z" fill="#1A1A1A"/><path d="M225.22000000000003 135.9H231.16000000000003L231.27 110.05H217.3L213.56 102.9V101.8H283.3L287.04 108.95V110.05H274.17L274.39 171.1H273.29L264.49 165.38L264.6 144.15H240.51000000000002V152.07Q240.51000000000002 154.82 237.98000000000002 154.82Q236.33 154.82 233.745 153.115Q231.16000000000003 151.41 228.57500000000002 148.76999999999998Q225.99 146.13 224.23000000000002 143.325Q222.47000000000003 140.52 222.47000000000003 138.43Q222.47000000000003 137.44 223.13000000000002 136.67000000000002Q223.79000000000002 135.9 225.22000000000003 135.9ZM264.93 110.05H240.29000000000002L240.4 135.9H264.71000000000004Z" fill="#1A1A1A"/><path d="M260.20000000000005 174.51 260.42 173.85Q263.94000000000005 173.19 266.8 173.19Q270.43000000000006 173.19 273.84000000000003 174.565Q277.25000000000006 175.94 280.66 178.58Q282.09000000000003 179.68 285.5 182.65Q288.91 185.62 293.20000000000005 189.47Q297.49 193.32 301.56000000000006 197.28L297.82000000000005 201.46H297.05Q291.77000000000004 195.52 288.14000000000004 191.78Q284.51000000000005 188.04 281.87 186.005Q279.23 183.97 276.755 183.2Q274.28000000000003 182.43 271.31000000000006 182.43Q268.67 182.43 266.91 182.76Q265.15000000000003 183.09 264.27000000000004 183.2Z" fill="#1A1A1A"/><path d="M365.58000000000004 171.1H364.4800000000001L355.68000000000006 165.38L355.7900000000001 145.47L325.65000000000003 166.59L319.38000000000005 160.21L336.32000000000005 148.55Q332.25000000000006 146.79 329.00500000000005 143.655Q325.76000000000005 140.52 323.7800000000001 137.055Q321.80000000000007 133.59 321.80000000000007 130.73Q321.69000000000005 129.19 321.69000000000005 127.87Q321.69000000000005 126.55 321.69000000000005 125.34Q321.69000000000005 121.93 321.74500000000006 118.025Q321.80000000000007 114.12 321.80000000000007 110.05H313.2200000000001L309.4800000000001 102.9V101.8H374.49000000000007L378.2300000000001 108.95V110.05H365.36000000000007ZM356.12000000000006 110.05H331.15000000000003L331.37000000000006 133.15Q331.4800000000001 138.32 334.0100000000001 140.74Q336.5400000000001 143.16 339.07000000000005 143.16Q342.37000000000006 143.16 346.605 141.07Q350.84000000000003 138.98 355.9000000000001 135.24Z" fill="#1A1A1A"/><path d="M394.9500000000001 171.65H393.8500000000001L385.05000000000007 165.93L385.49000000000007 110.05H375.8100000000001L372.0700000000001 102.9V101.8H386.0400000000001Q384.0600000000001 98.72 383.18000000000006 95.695Q382.30000000000007 92.67 382.30000000000007 89.81Q382.30000000000007 85.41 384.55500000000006 81.66999999999999Q386.8100000000001 77.92999999999999 391.5400000000001 75.565Q396.2700000000001 73.2 403.4200000000001 73.2Q409.9100000000001 73.2 416.6200000000001 75.455Q423.3300000000001 77.71 430.9200000000001 82.77Q438.5100000000001 87.83 447.4200000000001 96.08L444.4500000000001 99.49Q438.6200000000001 94.54 432.4600000000001 90.525Q426.30000000000007 86.51 419.86500000000007 84.09Q413.43000000000006 81.67 406.8300000000001 81.67Q401.0000000000001 81.67 397.3150000000001 83.595Q393.6300000000001 85.52 391.98000000000013 88.49Q390.3300000000001 91.46 390.3300000000001 94.87Q390.3300000000001 96.74 390.8250000000001 98.39Q391.3200000000001 100.04 392.2000000000001 101.8H403.86000000000007L407.6000000000001 108.95V110.05H394.7300000000001Z" fill="#1A1A1A"/><path d="M429.05000000000007 171.1H427.9500000000001Q420.1400000000001 160.98 414.9700000000001 152.83999999999997Q409.80000000000007 144.7 409.80000000000007 137.66Q409.80000000000007 129.52 416.1250000000001 125.83500000000001Q422.4500000000001 122.15 432.9000000000001 122.15H448.4100000000001L448.5200000000001 110.05H405.1800000000001L401.4400000000001 102.9V101.8H466.8900000000001L470.6300000000001 108.95V110.05H457.7600000000001L457.9800000000001 171.1H456.8800000000001L448.0800000000001 165.38L448.30000000000007 130.4H434.11000000000007Q426.0800000000001 130.4 422.17500000000007 133.97500000000002Q418.2700000000001 137.55 418.2700000000001 142.72Q418.2700000000001 145.14 418.9850000000001 147.33999999999997Q419.7000000000001 149.54 421.4050000000001 152.18Q423.11000000000007 154.82 426.1350000000001 158.39499999999998Q429.1600000000001 161.97 433.7800000000001 167.25Z" fill="#1A1A1A"/><path d="M503.63000000000005 182.65Q498.13000000000005 182.65 493.18000000000006 180.67000000000002Q488.2300000000001 178.69 484.43500000000006 175.28Q480.64000000000004 171.87 478.44000000000005 167.57999999999998Q476.24000000000007 163.29 476.24000000000007 158.67Q476.24000000000007 152.62 479.595 149.76Q482.95000000000005 146.9 488.2300000000001 145.14Q483.7200000000001 142.17 481.4650000000001 138.98Q479.2100000000001 135.79 478.4950000000001 132.26999999999998Q477.7800000000001 128.75 477.7800000000001 124.78999999999999Q477.7800000000001 121.38 477.83500000000004 117.695Q477.89000000000004 114.00999999999999 477.89000000000004 110.05H468.2100000000001L464.4700000000001 102.9V101.8H530.8000000000001L534.5400000000001 108.95V110.05H520.9000000000001Q521.0100000000001 114.34 521.0100000000001 119.51Q521.0100000000001 124.68 521.0100000000001 130.95Q521.0100000000001 136.12 519.3600000000001 139.585Q517.71 143.05 514.3000000000001 145.36Q520.1300000000001 149.98 522.99 154.54500000000002Q525.85 159.11 525.85 164.5Q525.85 169.67 522.99 173.795Q520.1300000000001 177.92 515.1250000000001 180.285Q510.12000000000006 182.65 503.63000000000005 182.65ZM509.3500000000001 148.0Q506.38000000000005 149.21 502.0900000000001 150.31Q496.70000000000005 151.74 492.74000000000007 153.22500000000002Q488.7800000000001 154.71 486.6350000000001 157.02Q484.49000000000007 159.33 484.49000000000007 163.51Q484.49000000000007 169.23 488.6700000000001 172.035Q492.8500000000001 174.84 498.68000000000006 174.84Q503.74000000000007 174.84 507.9200000000001 173.19Q512.1 171.54 514.6300000000001 168.515Q517.1600000000001 165.49 517.1600000000001 161.42Q517.1600000000001 157.57 515.07 153.995Q512.98 150.42 509.3500000000001 148.0ZM511.88000000000005 110.05H487.24000000000007L511.44000000000005 133.92000000000002Q511.7700000000001 132.38 511.7700000000001 129.85ZM487.24000000000007 116.75999999999999 487.4600000000001 132.6Q487.57000000000005 138.21 489.93500000000006 140.3Q492.30000000000007 142.39 495.7100000000001 142.39Q497.25000000000006 142.39 499.725 141.73Q502.20000000000005 141.07 504.67500000000007 140.02499999999998Q507.1500000000001 138.98 508.80000000000007 137.88Z" fill="#1A1A1A"/><path d="M563.9100000000001 110.05H551.0400000000001L551.26 171.65H550.1600000000001L541.36 165.93L541.8000000000001 110.05H532.12L528.38 102.9V101.8H560.1700000000001L563.9100000000001 108.95Z" fill="#1A1A1A"/><path d="M626.61 110.05H613.74L613.96 171.1H612.86L604.0600000000001 165.38L604.2800000000001 137.77H584.9200000000001Q584.9200000000001 144.15 584.26 146.68Q583.6 149.21 581.07 149.21Q578.76 149.21 576.12 147.78Q573.48 146.35 571.225 144.04Q568.97 141.73 567.54 138.98Q566.11 136.23 566.11 133.7Q566.11 130.62 568.585 129.905Q571.0600000000001 129.19 575.35 129.19Q577.33 129.19 581.84 129.245Q586.35 129.3 592.235 129.465Q598.12 129.63 604.2800000000001 129.74L604.5 110.05H561.49L557.75 102.9V101.8H622.87L626.61 108.95Z" fill="#1A1A1A"/></svg>