<svg xmlns="http://www.w3.org/2000/svg" viewBox="0 0 213.61 260"><rect width="213.61" height="260" fill="#fff"/><path d="M138.76 173.08Q132.38 173.08 128.2 170.385Q124.02 167.69 121.985 163.95Q119.95 160.21 119.95 157.35Q119.95 152.84 124.02000000000001 149.485Q128.09 146.13 136.89 143.82Q136.23000000000002 142.06 135.35000000000002 140.35500000000002Q134.47 138.65 133.48000000000002 136.67000000000002Q130.29000000000002 137.99 126.77000000000001 138.70499999999998Q123.25 139.42 120.39 139.42Q118.52000000000001 139.42 116.265 139.255Q114.00999999999999 139.09 111.37 138.65L111.47999999999999 171.1H110.38L101.58 165.38L101.69 143.27L75.73 161.2L69.24 154.82L99.71000000000001 135.02Q93.66 130.51 90.305 128.42Q86.95 126.33 84.31 126.33Q81.45 126.33 77.435 128.365Q73.42 130.4 69.68 132.27L63.85 124.68V124.13Q68.69 122.03999999999999 73.09 120.16999999999999Q77.49 118.3 80.9 118.3Q83.76 118.3 86.23500000000001 119.455Q88.71000000000001 120.61 92.23 123.36Q95.75 126.11 101.8 131.06L102.02000000000001 110.05H60.66L56.92 102.9V101.8H152.95L156.69 108.95V110.05H111.25999999999999L111.37 133.59H113.9Q119.07 133.59 122.755 132.05Q126.44 130.51 128.31 128.64Q127.1 126.33 126.44 124.515Q125.78 122.7 125.78 121.05Q125.78 119.07 126.77000000000001 118.3Q127.76 117.53 129.51999999999998 117.53Q131.82999999999998 117.53 134.855 118.905Q137.88 120.28 140.07999999999998 122.535Q142.28 124.78999999999999 142.28 127.53999999999999Q142.28 129.41 141.235 131.005Q140.19 132.6 138.43 133.92000000000002Q140.63 137.66 142.445 141.345Q144.26 145.03 146.13 149.76L145.91 150.31Q137.66 151.96 133.58999999999997 153.775Q129.51999999999998 155.59 128.255 157.35000000000002Q126.99 159.11 126.99 160.76Q126.99 162.3 128.475 163.95Q129.95999999999998 165.6 134.36 165.6Q137.11 165.6 140.35500000000002 164.72Q143.6 163.84 147.67000000000002 161.53L153.17000000000002 168.57Q151.41 169.78 147.67000000000002 171.43Q143.93 173.08 138.76 173.08Z" fill="#1A1A1A"/></svg>