<svg xmlns="http://www.w3.org/2000/svg" viewBox="0 0 512 512" role="img" aria-labelledby="rtam-chakra-mono-title rtam-chakra-mono-desc">
  <title id="rtam-chakra-mono-title">Rta-chakra — single ink (embroidery, stamps)</title>
  <desc id="rtam-chakra-mono-desc">Single-colour cut for embroidery, stamps, engraving and contexts that disallow gold; windows and seams read as the substrate.</desc>
  <circle cx="256" cy="256" r="213.5" fill="none" stroke="#1A1A1A" stroke-width="33"/>
  <circle cx="256" cy="44.4" r="10.35" fill="#EDEBE6"/>
  <circle cx="256" cy="44.4" r="10.35" fill="#EDEBE6" transform="rotate(30 256 256)"/>
  <circle cx="256" cy="44.4" r="10.35" fill="#EDEBE6" transform="rotate(60 256 256)"/>
  <circle cx="256" cy="44.4" r="10.35" fill="#EDEBE6" transform="rotate(90 256 256)"/>
  <circle cx="256" cy="44.4" r="10.35" fill="#EDEBE6" transform="rotate(120 256 256)"/>
  <circle cx="256" cy="44.4" r="10.35" fill="#EDEBE6" transform="rotate(150 256 256)"/>
  <circle cx="256" cy="44.4" r="10.35" fill="#EDEBE6" transform="rotate(180 256 256)"/>
  <circle cx="256" cy="44.4" r="10.35" fill="#EDEBE6" transform="rotate(210 256 256)"/>
  <circle cx="256" cy="44.4" r="10.35" fill="#EDEBE6" transform="rotate(240 256 256)"/>
  <circle cx="256" cy="44.4" r="10.35" fill="#EDEBE6" transform="rotate(270 256 256)"/>
  <circle cx="256" cy="44.4" r="10.35" fill="#EDEBE6" transform="rotate(300 256 256)"/>
  <circle cx="256" cy="44.4" r="10.35" fill="#EDEBE6" transform="rotate(330 256 256)"/>
  <path d="M 245.5 182.4 C 239 176 230.5 164 227.5 148 C 225.6 130 242 108 256 95 C 270 108 286.4 130 284.5 148 C 281.5 164 273 176 266.5 182.4 Z" fill="#1A1A1A" stroke="#EDEBE6" stroke-width="5" stroke-linejoin="round"/>
  <path d="M 245.5 182.4 C 239 176 230.5 164 227.5 148 C 225.6 130 242 108 256 95 C 270 108 286.4 130 284.5 148 C 281.5 164 273 176 266.5 182.4 Z" fill="#1A1A1A" stroke="#EDEBE6" stroke-width="5" stroke-linejoin="round" transform="rotate(30 256 256)"/>
  <path d="M 245.5 182.4 C 239 176 230.5 164 227.5 148 C 225.6 130 242 108 256 95 C 270 108 286.4 130 284.5 148 C 281.5 164 273 176 266.5 182.4 Z" fill="#1A1A1A" stroke="#EDEBE6" stroke-width="5" stroke-linejoin="round" transform="rotate(60 256 256)"/>
  <path d="M 245.5 182.4 C 239 176 230.5 164 227.5 148 C 225.6 130 242 108 256 95 C 270 108 286.4 130 284.5 148 C 281.5 164 273 176 266.5 182.4 Z" fill="#1A1A1A" stroke="#EDEBE6" stroke-width="5" stroke-linejoin="round" transform="rotate(90 256 256)"/>
  <path d="M 245.5 182.4 C 239 176 230.5 164 227.5 148 C 225.6 130 242 108 256 95 C 270 108 286.4 130 284.5 148 C 281.5 164 273 176 266.5 182.4 Z" fill="#1A1A1A" stroke="#EDEBE6" stroke-width="5" stroke-linejoin="round" transform="rotate(120 256 256)"/>
  <path d="M 245.5 182.4 C 239 176 230.5 164 227.5 148 C 225.6 130 242 108 256 95 C 270 108 286.4 130 284.5 148 C 281.5 164 273 176 266.5 182.4 Z" fill="#1A1A1A" stroke="#EDEBE6" stroke-width="5" stroke-linejoin="round" transform="rotate(150 256 256)"/>
  <path d="M 245.5 182.4 C 239 176 230.5 164 227.5 148 C 225.6 130 242 108 256 95 C 270 108 286.4 130 284.5 148 C 281.5 164 273 176 266.5 182.4 Z" fill="#1A1A1A" stroke="#EDEBE6" stroke-width="5" stroke-linejoin="round" transform="rotate(180 256 256)"/>
  <path d="M 245.5 182.4 C 239 176 230.5 164 227.5 148 C 225.6 130 242 108 256 95 C 270 108 286.4 130 284.5 148 C 281.5 164 273 176 266.5 182.4 Z" fill="#1A1A1A" stroke="#EDEBE6" stroke-width="5" stroke-linejoin="round" transform="rotate(210 256 256)"/>
  <path d="M 245.5 182.4 C 239 176 230.5 164 227.5 148 C 225.6 130 242 108 256 95 C 270 108 286.4 130 284.5 148 C 281.5 164 273 176 266.5 182.4 Z" fill="#1A1A1A" stroke="#EDEBE6" stroke-width="5" stroke-linejoin="round" transform="rotate(240 256 256)"/>
  <path d="M 245.5 182.4 C 239 176 230.5 164 227.5 148 C 225.6 130 242 108 256 95 C 270 108 286.4 130 284.5 148 C 281.5 164 273 176 266.5 182.4 Z" fill="#1A1A1A" stroke="#EDEBE6" stroke-width="5" stroke-linejoin="round" transform="rotate(270 256 256)"/>
  <path d="M 245.5 182.4 C 239 176 230.5 164 227.5 148 C 225.6 130 242 108 256 95 C 270 108 286.4 130 284.5 148 C 281.5 164 273 176 266.5 182.4 Z" fill="#1A1A1A" stroke="#EDEBE6" stroke-width="5" stroke-linejoin="round" transform="rotate(300 256 256)"/>
  <path d="M 245.5 182.4 C 239 176 230.5 164 227.5 148 C 225.6 130 242 108 256 95 C 270 108 286.4 130 284.5 148 C 281.5 164 273 176 266.5 182.4 Z" fill="#1A1A1A" stroke="#EDEBE6" stroke-width="5" stroke-linejoin="round" transform="rotate(330 256 256)"/>
  <circle cx="256" cy="256" r="50.6" fill="#1A1A1A"/>
</svg>
