<svg xmlns="http://www.w3.org/2000/svg" viewBox="0 0 512 512">
  <circle cx="256" cy="256" r="213.5" fill="none" stroke="#1A1A1A" stroke-width="33"/>
  <circle cx="310.77" cy="51.61" r="10.35" fill="#F7F3E9"/>
  <circle cx="405.62" cy="106.38" r="10.35" fill="#F7F3E9"/>
  <circle cx="460.39" cy="201.23" r="10.35" fill="#F7F3E9"/>
  <circle cx="460.39" cy="310.77" r="10.35" fill="#F7F3E9"/>
  <circle cx="405.62" cy="405.62" r="10.35" fill="#F7F3E9"/>
  <circle cx="310.77" cy="460.39" r="10.35" fill="#F7F3E9"/>
  <circle cx="201.23" cy="460.39" r="10.35" fill="#F7F3E9"/>
  <circle cx="106.38" cy="405.62" r="10.35" fill="#F7F3E9"/>
  <circle cx="51.61" cy="310.77" r="10.35" fill="#F7F3E9"/>
  <circle cx="51.61" cy="201.23" r="10.35" fill="#F7F3E9"/>
  <circle cx="106.38" cy="106.38" r="10.35" fill="#F7F3E9"/>
  <circle cx="201.23" cy="51.61" r="10.35" fill="#F7F3E9"/>
  <path d="M 243.5 182.4 C 236.5 168 232.5 153 232.5 138.7 C 232.5 124.5 242.5 109 256 95 C 269.5 109 279.5 124.5 279.5 138.7 C 279.5 153 275.5 168 268.5 182.4 Z" fill="#1A1A1A" stroke="#F7F3E9" stroke-width="5" stroke-linejoin="round"/>
  <path d="M 281.97 186.01 C 283.11 170.04 287.15 155.05 294.3 142.67 C 301.4 130.37 317.81 121.94 336.5 116.57 C 341.19 135.44 342.1 153.87 335 166.17 C 327.85 178.55 316.89 189.54 303.63 198.51 Z" fill="#1A1A1A" stroke="#F7F3E9" stroke-width="5" stroke-linejoin="round"/>
  <path d="M 313.49 208.37 C 322.46 195.11 333.45 184.15 345.83 177 C 358.13 169.9 376.56 170.81 395.43 175.5 C 390.06 194.19 381.63 210.6 369.33 217.7 C 356.95 224.85 341.96 228.89 325.99 230.03 Z" fill="#1A1A1A" stroke="#F7F3E9" stroke-width="5" stroke-linejoin="round"/>
  <path d="M 329.6 243.5 C 344 236.5 359 232.5 373.3 232.5 C 387.5 232.5 403 242.5 417 256 C 403 269.5 387.5 279.5 373.3 279.5 C 359 279.5 344 275.5 329.6 268.5 Z" fill="#1A1A1A" stroke="#F7F3E9" stroke-width="5" stroke-linejoin="round"/>
  <path d="M 325.99 281.97 C 341.96 283.11 356.95 287.15 369.33 294.3 C 381.63 301.4 390.06 317.81 395.43 336.5 C 376.56 341.19 358.13 342.1 345.83 335 C 333.45 327.85 322.46 316.89 313.49 303.63 Z" fill="#1A1A1A" stroke="#F7F3E9" stroke-width="5" stroke-linejoin="round"/>
  <path d="M 303.63 313.49 C 316.89 322.46 327.85 333.45 335 345.83 C 342.1 358.13 341.19 376.56 336.5 395.43 C 317.81 390.06 301.4 381.63 294.3 369.33 C 287.15 356.95 283.11 341.96 281.97 325.99 Z" fill="#1A1A1A" stroke="#F7F3E9" stroke-width="5" stroke-linejoin="round"/>
  <path d="M 268.5 329.6 C 275.5 344 279.5 359 279.5 373.3 C 279.5 387.5 269.5 403 256 417 C 242.5 403 232.5 387.5 232.5 373.3 C 232.5 359 236.5 344 243.5 329.6 Z" fill="#1A1A1A" stroke="#F7F3E9" stroke-width="5" stroke-linejoin="round"/>
  <path d="M 230.03 325.99 C 228.89 341.96 224.85 356.95 217.7 369.33 C 210.6 381.63 194.19 390.06 175.5 395.43 C 170.81 376.56 169.9 358.13 177 345.83 C 184.15 333.45 195.11 322.46 208.37 313.49 Z" fill="#1A1A1A" stroke="#F7F3E9" stroke-width="5" stroke-linejoin="round"/>
  <path d="M 198.51 303.63 C 189.54 316.89 178.55 327.85 166.17 335 C 153.87 342.1 135.44 341.19 116.57 336.5 C 121.94 317.81 130.37 301.4 142.67 294.3 C 155.05 287.15 170.04 283.11 186.01 281.97 Z" fill="#1A1A1A" stroke="#F7F3E9" stroke-width="5" stroke-linejoin="round"/>
  <path d="M 182.4 268.5 C 168 275.5 153 279.5 138.7 279.5 C 124.5 279.5 109 269.5 95 256 C 109 242.5 124.5 232.5 138.7 232.5 C 153 232.5 168 236.5 182.4 243.5 Z" fill="#1A1A1A" stroke="#F7F3E9" stroke-width="5" stroke-linejoin="round"/>
  <path d="M 186.01 230.03 C 170.04 228.89 155.05 224.85 142.67 217.7 C 130.37 210.6 121.94 194.19 116.57 175.5 C 135.44 170.81 153.87 169.9 166.17 177 C 178.55 184.15 189.54 195.11 198.51 208.37 Z" fill="#1A1A1A" stroke="#F7F3E9" stroke-width="5" stroke-linejoin="round"/>
  <path d="M 208.37 198.51 C 195.11 189.54 184.15 178.55 177 166.17 C 169.9 153.87 170.81 135.44 175.5 116.57 C 194.19 121.94 210.6 130.37 217.7 142.67 C 224.85 155.05 228.89 170.04 230.03 186.01 Z" fill="#1A1A1A" stroke="#F7F3E9" stroke-width="5" stroke-linejoin="round"/>
  <circle cx="256" cy="256" r="50.6" fill="#C8A15A"/>
</svg>
