<svg xmlns="http://www.w3.org/2000/svg" viewBox="0 0 640 380" role="img" aria-labelledby="rtambhareshvara-mandir-lockup-devanagari-led-title rtambhareshvara-mandir-lockup-devanagari-led-desc">
  <title id="rtambhareshvara-mandir-lockup-devanagari-led-title">ऋतम्भरेश्वर मंदिर — Devanagari-led temple lockup (city print)</title>
  <desc id="rtambhareshvara-mandir-lockup-devanagari-led-desc">The temple's city-print voice: Devanagari name large (Tiro), English support line small in letterspaced Cinzel caps with the gold bindu under its leading R, stone hairline between. On the letterhead the hub and this bindu are one gold in two renderings (D1a).</desc>
  <path d="M103.08799999999998 146.688Q97.51999999999998 146.688 93.87199999999999 144.336Q90.22399999999998 141.984 88.44799999999998 138.72Q86.67199999999997 135.456 86.67199999999997 132.96Q86.67199999999997 129.024 90.22399999999998 126.096Q93.77599999999998 123.168 101.45599999999997 121.152Q100.87999999999998 119.616 100.11199999999998 118.128Q99.34399999999998 116.64 98.47999999999998 114.912Q95.69599999999997 116.064 92.62399999999997 116.68799999999999Q89.55199999999998 117.312 87.05599999999998 117.312Q85.42399999999998 117.312 83.45599999999997 117.168Q81.48799999999997 117.024 79.18399999999997 116.64L79.27999999999997 144.96H78.31999999999998L70.63999999999999 139.968L70.73599999999998 120.672L48.07999999999998 136.32L42.415999999999976 130.752L69.00799999999998 113.472Q63.72799999999998 109.536 60.799999999999976 107.712Q57.87199999999997 105.888 55.56799999999998 105.888Q53.071999999999974 105.888 49.56799999999998 107.664Q46.06399999999998 109.44 42.799999999999976 111.072L37.711999999999975 104.44800000000001V103.96799999999999Q41.93599999999998 102.144 45.77599999999998 100.512Q49.61599999999998 98.88 52.59199999999998 98.88Q55.08799999999998 98.88 57.247999999999976 99.888Q59.40799999999997 100.896 62.479999999999976 103.29599999999999Q65.55199999999998 105.696 70.83199999999998 110.01599999999999L71.02399999999997 91.68H34.927999999999976L31.663999999999977 85.44V84.47999999999999H115.47199999999998L118.73599999999998 90.72V91.68H79.08799999999998L79.18399999999997 112.224H81.39199999999997Q85.90399999999997 112.224 89.11999999999998 110.88Q92.33599999999998 109.536 93.96799999999998 107.904Q92.91199999999998 105.888 92.33599999999998 104.304Q91.75999999999998 102.72 91.75999999999998 101.28Q91.75999999999998 99.55199999999999 92.62399999999997 98.88Q93.48799999999997 98.208 95.02399999999997 98.208Q97.03999999999998 98.208 99.67999999999998 99.408Q102.31999999999998 100.608 104.23999999999998 102.576Q106.15999999999998 104.544 106.15999999999998 106.944Q106.15999999999998 108.576 105.24799999999998 109.96799999999999Q104.33599999999997 111.36 102.79999999999998 112.512Q104.71999999999997 115.776 106.30399999999997 118.99199999999999Q107.88799999999998 122.208 109.51999999999998 126.336L109.32799999999997 126.816Q102.12799999999997 128.256 98.57599999999996 129.84Q95.02399999999997 131.424 93.91999999999997 132.96Q92.81599999999997 134.496 92.81599999999997 135.936Q92.81599999999997 137.28 94.11199999999998 138.72Q95.40799999999999 140.16 99.24799999999998 140.16Q101.64799999999998 140.16 104.47999999999999 139.392Q107.31199999999998 138.624 110.86399999999998 136.608L115.66399999999997 142.752Q114.12799999999997 143.808 110.86399999999998 145.248Q107.59999999999998 146.688 103.08799999999998 146.688Z" fill="#1A1A1A"/>
  <path d="M137.45599999999996 144.96H136.49599999999998Q129.67999999999998 136.128 125.16799999999998 129.024Q120.65599999999998 121.92 120.65599999999998 115.776Q120.65599999999998 108.672 126.17599999999997 105.456Q131.69599999999997 102.24000000000001 140.81599999999997 102.24000000000001H154.35199999999998L154.44799999999998 91.68H116.62399999999997L113.35999999999997 85.44V84.47999999999999H170.47999999999996L173.74399999999997 90.72V91.68H162.51199999999997L162.70399999999998 144.96H161.74399999999997L154.06399999999996 139.968L154.25599999999997 109.44H141.87199999999999Q134.86399999999998 109.44 131.45599999999996 112.56Q128.04799999999997 115.68 128.04799999999997 120.19200000000001Q128.04799999999997 122.304 128.67199999999997 124.224Q129.29599999999996 126.144 130.78399999999996 128.448Q132.27199999999996 130.752 134.91199999999998 133.872Q137.55199999999996 136.992 141.58399999999997 141.6Z" fill="#1A1A1A"/>
  <path d="M189.67999999999998 130.752Q188.23999999999998 130.752 185.98399999999998 129.264Q183.72799999999998 127.776 181.47199999999998 125.47200000000001Q179.21599999999998 123.168 177.67999999999998 120.72Q176.14399999999998 118.27199999999999 176.14399999999998 116.44800000000001Q176.14399999999998 115.584 176.71999999999997 114.912Q177.296 114.24 178.54399999999998 114.24H183.72799999999998L183.82399999999998 91.68H171.63199999999998L168.368 85.44V84.47999999999999H205.904Q206.09599999999998 84.384 206.384 84.288Q208.688 83.232 211.088 83.232Q214.736 83.232 218.0 85.008Q221.26399999999998 86.78399999999999 223.808 89.75999999999999Q226.35199999999998 92.73599999999999 227.79199999999997 96.288Q229.23199999999997 99.84 229.23199999999997 103.29599999999999Q229.23199999999997 105.792 229.13599999999997 108.768Q229.04 111.744 228.944 114.24H247.76L247.952 91.68H234.512L231.248 85.44V84.47999999999999H263.984L267.248 90.72V91.68H256.01599999999996L256.20799999999997 144.96H255.248L247.56799999999998 139.968L247.664 121.44H228.272Q227.69599999999997 126.52799999999999 227.16799999999998 128.64Q226.64 130.752 224.81599999999997 130.752Q223.27999999999997 130.752 221.02399999999997 129.264Q218.76799999999997 127.776 216.55999999999997 125.47200000000001Q214.64 123.456 213.296 121.44H191.88799999999998V128.352Q191.88799999999998 130.752 189.67999999999998 130.752ZM213.87199999999999 114.24H220.59199999999998Q221.07199999999997 109.72800000000001 221.26399999999998 106.848Q221.456 103.96799999999999 221.456 100.896Q221.456 94.464 219.728 92.208Q218.0 89.952 214.64 89.952Q212.23999999999998 89.952 210.32 91.392Q208.39999999999998 92.832 208.39999999999998 95.328Q208.39999999999998 97.824 210.416 99.45599999999999Q212.432 101.088 214.54399999999998 102.24000000000001V103.29599999999999Q213.58399999999997 103.392 213.152 103.44Q212.71999999999997 103.488 212.62399999999997 103.488Q207.05599999999998 103.488 203.98399999999998 100.128Q200.91199999999998 96.768 200.91199999999998 92.352Q200.91199999999998 91.96799999999999 200.91199999999998 91.68H191.69599999999997L191.79199999999997 114.24H213.58399999999997Q213.67999999999998 114.24 213.87199999999999 114.24Z" fill="#1A1A1A"/>
  <path d="M295.472 145.92H294.512L275.504 122.592Q271.952 118.27199999999999 270.464 115.536Q268.976 112.8 268.976 111.168Q268.976 108.096 273.872 108.096Q275.312 108.096 277.808 108.288Q280.304 108.47999999999999 282.032 108.672Q282.512 106.27199999999999 282.656 103.15199999999999Q282.8 100.032 282.8 97.72800000000001Q282.8 95.71199999999999 282.752 94.27199999999999Q282.704 92.832 282.608 91.68H265.136L261.872 85.44V84.47999999999999H301.808L305.072 90.72V91.68H290.576Q290.672 93.50399999999999 290.76800000000003 95.71199999999999Q290.86400000000003 97.92 290.86400000000003 98.78399999999999Q290.86400000000003 106.656 289.712 111.26400000000001Q288.56 115.872 286.20799999999997 118.176Q283.856 120.48 280.4 121.248L300.368 141.888Z" fill="#1A1A1A"/>
  <path d="M252.272 58.27199999999999 252.368 57.599999999999994Q256.112 56.928 258.8 56.736Q261.488 56.544 262.352 56.544Q267.248 56.544 271.472 60.192Q275.696 63.84 280.016 70.416Q284.336 76.992 289.424 85.632H284.24Q279.632 77.664 276.512 73.29599999999999Q273.392 68.928 270.99199999999996 67.152Q268.592 65.376 265.904 65.376Q264.368 65.376 261.632 65.664Q258.896 65.952 256.688 66.432Z" fill="#1A1A1A"/>
  <path d="M311.312 123.744 305.36 117.6Q310.064 115.104 314.0 112.94399999999999Q317.93600000000004 110.78399999999999 321.2 108.576Q316.40000000000003 105.696 313.42400000000004 102.0Q310.44800000000004 98.304 310.44800000000004 93.888Q310.44800000000004 89.376 313.808 86.064Q317.168 82.752 322.64 82.752Q326.96000000000004 82.752 330.848 84.96000000000001Q334.736 87.168 337.13599999999997 90.768Q339.536 94.368 339.536 98.688Q339.536 102.144 337.904 104.688Q336.272 107.232 333.296 109.824Q338.0 111.36 343.23199999999997 112.27199999999999Q348.464 113.184 353.36 113.568L353.456 91.68H343.28000000000003L340.016 85.44V84.47999999999999H369.488L372.752 90.72V91.68H361.52000000000004L361.712 153.312H360.752L353.168 147.84V141.024Q351.05600000000004 142.272 348.944 142.848Q346.832 143.424 344.72 143.424Q339.728 143.424 335.648 141.024Q331.56800000000004 138.624 329.12 134.976Q326.672 131.328 326.672 127.488Q326.672 123.264 329.552 120.144Q332.432 117.024 336.848 115.392Q333.00800000000004 114.24 329.552 112.8Q325.808 115.584 321.05600000000004 118.272Q316.30400000000003 120.96000000000001 311.312 123.744ZM353.264 120.96000000000001Q352.49600000000004 120.864 351.63200000000006 120.816Q350.76800000000003 120.768 350.0 120.768Q342.416 120.768 338.096 123.888Q333.776 127.008 333.776 131.232Q333.776 134.304 335.88800000000003 135.792Q338.0 137.28 340.976 137.28Q343.664 137.28 346.88 135.888Q350.096 134.496 353.264 131.424ZM324.848 106.176Q329.36 103.00800000000001 331.184 100.608Q333.00800000000004 98.208 333.00800000000004 95.424Q333.00800000000004 92.544 331.088 90.816Q329.168 89.088 326.096 89.088Q322.832 89.088 320.288 91.24799999999999Q317.744 93.408 317.744 96.768Q317.744 99.648 319.664 102.0Q321.584 104.352 324.848 106.176Z" fill="#1A1A1A"/>
  <path d="M400.976 145.92H400.016L381.00800000000004 122.592Q377.456 118.27199999999999 375.968 115.536Q374.48 112.8 374.48 111.168Q374.48 108.096 379.37600000000003 108.096Q380.81600000000003 108.096 383.312 108.288Q385.808 108.47999999999999 387.536 108.672Q388.016 106.27199999999999 388.16 103.15199999999999Q388.30400000000003 100.032 388.30400000000003 97.72800000000001Q388.30400000000003 95.71199999999999 388.25600000000003 94.27199999999999Q388.208 92.832 388.112 91.68H370.64000000000004L367.37600000000003 85.44V84.47999999999999H407.312L410.576 90.72V91.68H396.08000000000004Q396.17600000000004 93.50399999999999 396.27200000000005 95.71199999999999Q396.36800000000005 97.92 396.36800000000005 98.78399999999999Q396.36800000000005 106.656 395.216 111.26400000000001Q394.064 115.872 391.712 118.176Q389.36 120.48 385.904 121.248L405.872 141.888Z" fill="#1A1A1A"/>
  <path d="M440.336 114.24H445.52000000000004L445.616 91.68H433.42400000000004L430.16 85.44V84.47999999999999H491.024L494.288 90.72V91.68H483.05600000000004L483.248 144.96H482.288L474.608 139.968L474.704 121.44H453.68V128.352Q453.68 130.752 451.47200000000004 130.752Q450.03200000000004 130.752 447.77600000000007 129.264Q445.52000000000004 127.776 443.264 125.47200000000001Q441.00800000000004 123.168 439.47200000000004 120.72Q437.93600000000004 118.27199999999999 437.93600000000004 116.44800000000001Q437.93600000000004 115.584 438.51200000000006 114.912Q439.088 114.24 440.336 114.24ZM474.992 91.68H453.488L453.584 114.24H474.8Z" fill="#1A1A1A"/>
  <path d="M464.624 64.512 471.34400000000005 71.232 464.624 77.76 458.00000000000006 71.232Z" fill="#1A1A1A"/>
  <path d="M508.88 145.44H507.92L500.24 140.448L500.624 91.68H492.17600000000004L488.91200000000003 85.44V84.47999999999999H501.10400000000004Q499.37600000000003 81.792 498.60800000000006 79.152Q497.84000000000003 76.512 497.84000000000003 74.016Q497.84000000000003 70.176 499.808 66.912Q501.776 63.647999999999996 505.904 61.583999999999996Q510.03200000000004 59.519999999999996 516.272 59.519999999999996Q521.936 59.519999999999996 527.792 61.488Q533.648 63.456 540.272 67.872Q546.8960000000001 72.288 554.672 79.488L552.08 82.464Q546.9920000000001 78.144 541.616 74.64Q536.24 71.136 530.624 69.024Q525.008 66.91199999999999 519.248 66.91199999999999Q514.16 66.91199999999999 510.94399999999996 68.59199999999998Q507.728 70.27199999999999 506.288 72.864Q504.848 75.456 504.848 78.432Q504.848 80.064 505.28000000000003 81.50399999999999Q505.71200000000005 82.94399999999999 506.48 84.47999999999999H516.6560000000001L519.9200000000001 90.72V91.68H508.68800000000005Z" fill="#1A1A1A"/>
  <path d="M563.9839999999999 153.408H563.12L554.288 137.952Q551.6 138.72 548.24 138.72Q543.2479999999999 138.72 538.6399999999999 136.656Q534.0319999999999 134.592 530.384 131.04000000000002Q526.736 127.488 524.624 123.024Q522.512 118.56 522.512 113.664Q522.512 108.672 525.056 105.888Q527.6 103.104 532.1120000000001 102.0Q536.624 100.896 542.672 100.896H549.872V91.68H517.808L514.544 85.44V84.47999999999999H567.2479999999999L570.512 90.72V91.68H557.7439999999999Q557.7439999999999 95.71199999999999 557.7919999999999 99.984Q557.8399999999999 104.256 557.8399999999999 107.328L556.688 108.096H543.1519999999999Q537.0079999999999 108.096 533.3599999999999 110.49600000000001Q529.712 112.896 529.712 117.792Q529.712 122.304 531.6800000000001 125.52Q533.648 128.736 536.72 130.416Q539.7919999999999 132.096 543.1519999999999 132.096Q544.88 132.096 546.848 131.76Q548.8159999999999 131.424 550.256 130.56Q549.1039999999999 128.256 548.384 126.336Q547.664 124.416 547.664 123.072Q547.664 121.44 548.576 120.72Q549.4879999999999 120.0 551.024 120.0Q553.232 120.0 555.968 121.24799999999999Q558.704 122.496 560.768 124.464Q562.832 126.432 562.832 128.736Q562.832 129.792 561.968 131.904Q561.1039999999999 134.016 558.608 135.84L568.976 150.24Z" fill="#1A1A1A"/>
  <path d="M598.736 145.92H597.776L578.7679999999999 122.592Q575.216 118.27199999999999 573.7280000000001 115.536Q572.24 112.8 572.24 111.168Q572.24 108.096 577.136 108.096Q578.5759999999999 108.096 581.0719999999999 108.288Q583.568 108.47999999999999 585.2959999999999 108.672Q585.776 106.27199999999999 585.92 103.15199999999999Q586.064 100.032 586.064 97.72800000000001Q586.064 95.71199999999999 586.016 94.27199999999999Q585.968 92.832 585.872 91.68H568.4L565.136 85.44V84.47999999999999H605.072L608.336 90.72V91.68H593.8399999999999Q593.9359999999999 93.50399999999999 594.0319999999999 95.71199999999999Q594.1279999999999 97.92 594.1279999999999 98.78399999999999Q594.1279999999999 106.656 592.9759999999999 111.26400000000001Q591.824 115.872 589.472 118.176Q587.12 120.48 583.664 121.248L603.632 141.888Z" fill="#1A1A1A"/>
  <path d="M43.82400000000002 273.6H48.20800000000002Q49.648000000000025 273.6 50.89600000000002 273.98400000000004Q52.14400000000002 274.368 53.02400000000002 275.12Q53.904000000000025 275.872 54.416000000000025 276.992Q54.928000000000026 278.112 54.928000000000026 279.616Q54.928000000000026 281.088 54.25600000000002 282.48Q53.58400000000002 283.872 52.384000000000015 284.76800000000003Q51.18400000000002 285.664 49.55200000000002 285.728Q50.25600000000002 285.984 50.96000000000002 286.72Q51.66400000000002 287.456 52.17600000000002 288.16Q52.17600000000002 288.192 52.57600000000002 288.76800000000003Q52.97600000000002 289.344 53.58400000000002 290.192Q54.19200000000002 291.04 54.816000000000024 291.872Q55.440000000000026 292.704 55.920000000000016 293.248Q56.56000000000002 294.016 57.18400000000002 294.544Q57.80800000000002 295.072 58.52800000000002 295.376Q59.24800000000002 295.68 60.14400000000002 295.68V296.0H57.904000000000025Q56.36800000000002 296.0 55.184000000000026 295.6Q54.00000000000002 295.2 53.136000000000024 294.512Q52.27200000000002 293.824 51.66400000000002 293.024Q51.53600000000002 292.8 51.136000000000024 292.192Q50.73600000000002 291.584 50.24000000000002 290.8Q49.74400000000002 290.016 49.264000000000024 289.24800000000005Q48.78400000000002 288.48 48.432000000000016 287.92Q48.08000000000002 287.36 47.98400000000002 287.2Q47.44000000000002 286.336 46.768000000000015 285.712Q46.09600000000002 285.088 45.29600000000002 285.056V284.736Q45.32800000000002 284.736 45.76000000000002 284.75199999999995Q46.19200000000002 284.768 46.76800000000002 284.736Q47.60000000000002 284.704 48.544000000000025 284.448Q49.48800000000002 284.192 50.27200000000002 283.456Q51.05600000000002 282.72 51.44000000000002 281.28Q51.53600000000002 280.96 51.58400000000002 280.48Q51.63200000000002 280.0 51.60000000000002 279.488Q51.56800000000002 277.28 50.49600000000002 276.048Q49.42400000000002 274.816 47.69600000000002 274.752Q46.96000000000002 274.688 46.160000000000025 274.704Q45.36000000000002 274.72 44.78400000000002 274.72Q44.20800000000002 274.72 44.14400000000002 274.72Q44.14400000000002 274.688 44.06400000000002 274.416Q43.98400000000002 274.144 43.904000000000025 273.872Q43.82400000000002 273.6 43.82400000000002 273.6ZM44.24000000000002 273.6V296.0H41.264000000000024V273.6ZM41.36000000000002 293.664V296.0H38.80000000000002V295.68Q38.80000000000002 295.68 39.008000000000024 295.68Q39.21600000000002 295.68 39.21600000000002 295.68Q40.04800000000002 295.68 40.64000000000002 295.08799999999997Q41.23200000000002 294.496 41.264000000000024 293.664ZM41.36000000000002 275.936H41.264000000000024Q41.23200000000002 275.104 40.64000000000002 274.512Q40.04800000000002 273.92 39.21600000000002 273.92Q39.21600000000002 273.92 39.008000000000024 273.92Q38.80000000000002 273.92 38.80000000000002 273.92V273.6H41.36000000000002ZM44.14400000000002 293.664H44.24000000000002Q44.24000000000002 294.496 44.84800000000002 295.08799999999997Q45.45600000000002 295.68 46.28800000000002 295.68Q46.32000000000002 295.68 46.49600000000002 295.68Q46.67200000000002 295.68 46.67200000000002 295.68V296.0H44.14400000000002Z" fill="#1A1A1A"/>
  <path d="M73.52000000000002 273.696V296.0H70.54400000000003V273.696ZM81.61600000000001 273.568V274.656H62.44800000000002V273.568ZM81.61600000000001 274.56V277.536L81.29600000000002 277.504V277.024Q81.29600000000002 276.0 80.64000000000001 275.344Q79.98400000000002 274.688 78.96000000000002 274.656V274.56ZM81.61600000000001 272.992V273.92L77.71200000000002 273.568Q78.41600000000003 273.568 79.20000000000002 273.472Q79.98400000000002 273.376 80.65600000000002 273.248Q81.32800000000002 273.12 81.61600000000001 272.992ZM70.64000000000001 293.664V296.0H68.08000000000003V295.68Q68.08000000000003 295.68 68.28800000000003 295.68Q68.49600000000002 295.68 68.49600000000002 295.68Q69.32800000000002 295.68 69.92000000000002 295.08799999999997Q70.51200000000003 294.496 70.54400000000003 293.664ZM73.42400000000002 293.664H73.52000000000002Q73.55200000000002 294.496 74.14400000000002 295.08799999999997Q74.73600000000002 295.68 75.56800000000003 295.68Q75.56800000000003 295.68 75.77600000000002 295.68Q75.98400000000002 295.68 75.98400000000002 295.68V296.0H73.42400000000002ZM65.10400000000003 274.56V274.656Q64.08000000000003 274.688 63.42400000000002 275.344Q62.76800000000002 276.0 62.76800000000002 277.024V277.504L62.44800000000002 277.536V274.56ZM62.44800000000002 272.992Q62.76800000000002 273.12 63.42400000000002 273.248Q64.08000000000003 273.376 64.88000000000002 273.472Q65.68000000000002 273.568 66.35200000000002 273.568L62.44800000000002 273.92Z" fill="#1A1A1A"/>
  <path d="M95.15200000000002 273.088 104.97600000000003 295.808H101.23200000000003L94.09600000000002 277.184ZM88.27200000000002 293.664Q88.04800000000003 294.304 88.20800000000003 294.75199999999995Q88.36800000000002 295.2 88.73600000000002 295.44Q89.10400000000003 295.68 89.48800000000003 295.68H89.77600000000002V296.0H83.21600000000002V295.68Q83.21600000000002 295.68 83.36000000000001 295.68Q83.50400000000002 295.68 83.50400000000002 295.68Q84.24000000000002 295.68 85.02400000000003 295.216Q85.80800000000002 294.752 86.32000000000002 293.664ZM95.15200000000002 273.088 95.40800000000002 275.872 87.40800000000003 295.904H85.32800000000002L93.55200000000002 276.672Q93.58400000000002 276.608 93.79200000000003 276.17600000000004Q94.00000000000003 275.744 94.24000000000002 275.136Q94.48000000000002 274.528 94.67200000000003 273.952Q94.86400000000002 273.376 94.86400000000002 273.088ZM99.28000000000003 287.648V288.736H89.48800000000003V287.648ZM100.40000000000002 293.664H104.01600000000002Q104.52800000000002 294.752 105.31200000000003 295.216Q106.09600000000003 295.68 106.83200000000002 295.68Q106.83200000000002 295.68 106.96000000000002 295.68Q107.08800000000002 295.68 107.08800000000002 295.68V296.0H98.89600000000003V295.68H99.18400000000003Q99.82400000000003 295.68 100.30400000000003 295.15200000000004Q100.78400000000002 294.624 100.40000000000002 293.664Z" fill="#1A1A1A"/>
  <path d="M134.704 273.152 134.96000000000004 275.744 126.44800000000002 293.152Q126.44800000000002 293.152 126.17600000000002 293.712Q125.90400000000002 294.272 125.63200000000003 295.03999999999996Q125.36000000000003 295.808 125.29600000000002 296.512H124.97600000000003L124.27200000000002 294.24ZM114.35200000000002 293.664V296.0H110.80000000000003V295.68Q110.83200000000002 295.68 111.07200000000003 295.68Q111.31200000000003 295.68 111.31200000000003 295.68Q112.17600000000002 295.68 112.84800000000001 295.15200000000004Q113.52000000000002 294.624 113.64800000000002 293.664ZM115.44000000000003 294.176Q115.44000000000003 294.208 115.44000000000003 294.24Q115.44000000000003 294.272 115.44000000000003 294.336Q115.44000000000003 294.848 115.80800000000002 295.28Q116.17600000000002 295.712 116.68800000000002 295.712H117.16800000000002V296.0H115.21600000000002V294.176ZM116.14400000000002 273.152H116.43200000000002L117.23200000000003 275.488L115.28000000000002 296.0H113.36000000000003ZM116.43200000000002 273.152 126.06400000000002 292.16 124.97600000000003 296.512 115.76000000000002 278.08ZM134.99200000000002 273.152 137.84000000000003 296.0H134.44800000000004L132.752 278.176L134.704 273.152ZM136.88000000000002 293.664H137.55200000000002Q137.71200000000002 294.624 138.38400000000001 295.15200000000004Q139.056 295.68 139.88800000000003 295.68Q139.88800000000003 295.68 140.14400000000003 295.68Q140.40000000000003 295.68 140.40000000000003 295.68V296.0H136.88000000000002ZM134.288 294.176H134.51200000000003V296.0H132.56000000000003V295.712H133.04000000000002Q133.58400000000003 295.712 133.93600000000004 295.28Q134.288 294.848 134.288 294.336Q134.288 294.272 134.288 294.24Q134.288 294.208 134.288 294.176Z" fill="#1A1A1A"/>
  <path d="M149.55200000000002 273.6H153.64800000000002Q155.92000000000002 273.6 157.568 274.24Q159.216 274.88 160.096 276.08Q160.976 277.28 160.976 278.976Q160.976 280.384 160.448 281.392Q159.92000000000002 282.4 159.08800000000002 282.99199999999996Q158.256 283.584 157.328 283.808Q158.99200000000002 284.032 160.25600000000003 284.86400000000003Q161.52 285.696 162.192 286.976Q162.864 288.256 162.864 289.92Q162.864 291.776 161.92000000000002 293.15200000000004Q160.976 294.528 159.18400000000003 295.264Q157.39200000000002 296.0 154.89600000000002 296.0H151.472Q151.472 296.0 151.488 295.68Q151.50400000000002 295.36 151.50400000000002 295.05600000000004Q151.50400000000002 294.752 151.50400000000002 294.752H154.352Q155.952 294.752 157.08800000000002 294.17600000000004Q158.22400000000002 293.6 158.83200000000002 292.448Q159.44000000000003 291.296 159.44000000000003 289.632Q159.44000000000003 287.968 158.83200000000002 286.896Q158.22400000000002 285.824 157.264 285.23199999999997Q156.304 284.64 155.13600000000002 284.4Q153.96800000000002 284.16 152.848 284.16V283.872Q153.584 283.872 154.416 283.68Q155.24800000000002 283.488 156.0 283.00800000000004Q156.752 282.528 157.216 281.616Q157.68 280.704 157.68 279.264Q157.68 277.76 157.168 276.752Q156.656 275.744 155.64800000000002 275.24800000000005Q154.64000000000001 274.752 153.20000000000002 274.752H149.872Q149.872 274.72 149.79200000000003 274.448Q149.71200000000002 274.176 149.632 273.88800000000003Q149.55200000000002 273.6 149.55200000000002 273.6ZM151.76000000000002 273.6V296.0H148.78400000000002V273.6ZM148.88000000000002 293.664V296.0H146.32000000000002L146.352 295.68Q146.41600000000003 295.68 146.56 295.68Q146.704 295.68 146.73600000000002 295.68Q147.568 295.68 148.17600000000002 295.08799999999997Q148.78400000000002 294.496 148.78400000000002 293.664ZM148.88000000000002 275.936H148.78400000000002Q148.78400000000002 275.104 148.17600000000002 274.512Q147.568 273.92 146.73600000000002 273.92Q146.704 273.92 146.56 273.92Q146.41600000000003 273.92 146.352 273.92L146.32000000000002 273.6H148.88000000000002Z" fill="#1A1A1A"/>
  <path d="M190.35200000000003 273.6V296.0H187.37600000000003V273.6ZM175.18400000000003 273.6V296.0H172.20800000000003V273.6ZM187.66400000000002 284.352V285.44H174.86400000000003V284.352ZM172.30400000000003 293.664V296.0H169.74400000000003V295.68Q169.74400000000003 295.68 169.95200000000003 295.68Q170.16000000000003 295.68 170.16000000000003 295.68Q170.99200000000002 295.68 171.584 295.08799999999997Q172.17600000000002 294.496 172.20800000000003 293.664ZM172.30400000000003 275.936H172.20800000000003Q172.17600000000002 275.104 171.584 274.512Q170.99200000000002 273.92 170.16000000000003 273.92Q170.16000000000003 273.92 169.95200000000003 273.92Q169.74400000000003 273.92 169.74400000000003 273.92V273.6H172.30400000000003ZM175.08800000000002 293.664H175.18400000000003Q175.216 294.496 175.80800000000002 295.08799999999997Q176.40000000000003 295.68 177.23200000000003 295.68Q177.23200000000003 295.68 177.42400000000004 295.68Q177.616 295.68 177.64800000000002 295.68V296.0H175.08800000000002ZM175.08800000000002 275.936V273.6H177.64800000000002V273.92Q177.616 273.92 177.42400000000004 273.92Q177.23200000000003 273.92 177.23200000000003 273.92Q176.40000000000003 273.92 175.80800000000002 274.512Q175.216 275.104 175.18400000000003 275.936ZM187.472 293.664V296.0H184.91200000000003V295.68Q184.94400000000002 295.68 185.13600000000002 295.68Q185.32800000000003 295.68 185.32800000000003 295.68Q186.16000000000003 295.68 186.76800000000003 295.08799999999997Q187.37600000000003 294.496 187.37600000000003 293.664ZM187.472 275.936H187.37600000000003Q187.37600000000003 275.104 186.76800000000003 274.512Q186.16000000000003 273.92 185.32800000000003 273.92Q185.32800000000003 273.92 185.13600000000002 273.92Q184.94400000000002 273.92 184.91200000000003 273.92V273.6H187.472ZM190.25600000000003 293.664H190.35200000000003Q190.38400000000001 294.496 190.976 295.08799999999997Q191.568 295.68 192.40000000000003 295.68Q192.40000000000003 295.68 192.60800000000003 295.68Q192.81600000000003 295.68 192.81600000000003 295.68V296.0H190.25600000000003ZM190.25600000000003 275.936V273.6H192.81600000000003V273.92Q192.81600000000003 273.92 192.60800000000003 273.92Q192.40000000000003 273.92 192.40000000000003 273.92Q191.568 273.92 190.976 274.512Q190.38400000000001 275.104 190.35200000000003 275.936Z" fill="#1A1A1A"/>
  <path d="M209.90400000000002 273.088 219.728 295.808H215.984L208.848 277.184ZM203.02400000000003 293.664Q202.8 294.304 202.96 294.75199999999995Q203.12 295.2 203.488 295.44Q203.85600000000002 295.68 204.24 295.68H204.52800000000002V296.0H197.96800000000002V295.68Q197.96800000000002 295.68 198.11200000000002 295.68Q198.25600000000003 295.68 198.25600000000003 295.68Q198.99200000000002 295.68 199.776 295.216Q200.56000000000003 294.752 201.07200000000003 293.664ZM209.90400000000002 273.088 210.16000000000003 275.872 202.16000000000003 295.904H200.08L208.30400000000003 276.672Q208.336 276.608 208.544 276.17600000000004Q208.752 275.744 208.99200000000002 275.136Q209.23200000000003 274.528 209.42400000000004 273.952Q209.616 273.376 209.616 273.088ZM214.032 287.648V288.736H204.24V287.648ZM215.15200000000002 293.664H218.76800000000003Q219.28000000000003 294.752 220.06400000000002 295.216Q220.848 295.68 221.584 295.68Q221.584 295.68 221.71200000000002 295.68Q221.84000000000003 295.68 221.84000000000003 295.68V296.0H213.64800000000002V295.68H213.936Q214.57600000000002 295.68 215.05600000000004 295.15200000000004Q215.53600000000003 294.624 215.15200000000002 293.664Z" fill="#1A1A1A"/>
  <path d="M232.11200000000002 273.6H236.49600000000004Q237.93600000000004 273.6 239.18400000000003 273.98400000000004Q240.43200000000004 274.368 241.31200000000004 275.12Q242.19200000000004 275.872 242.70400000000004 276.992Q243.21600000000004 278.112 243.21600000000004 279.616Q243.21600000000004 281.088 242.54400000000004 282.48Q241.87200000000004 283.872 240.67200000000003 284.76800000000003Q239.47200000000004 285.664 237.84000000000003 285.728Q238.54400000000004 285.984 239.24800000000005 286.72Q239.95200000000003 287.456 240.46400000000003 288.16Q240.46400000000003 288.192 240.86400000000003 288.76800000000003Q241.26400000000004 289.344 241.872 290.192Q242.48000000000002 291.04 243.10400000000004 291.872Q243.72800000000004 292.704 244.20800000000003 293.248Q244.84800000000004 294.016 245.47200000000004 294.544Q246.09600000000003 295.072 246.81600000000003 295.376Q247.53600000000003 295.68 248.43200000000002 295.68V296.0H246.19200000000004Q244.65600000000003 296.0 243.47200000000004 295.6Q242.28800000000004 295.2 241.42400000000004 294.512Q240.56000000000003 293.824 239.95200000000003 293.024Q239.82400000000004 292.8 239.42400000000004 292.192Q239.02400000000003 291.584 238.52800000000002 290.8Q238.03200000000004 290.016 237.55200000000002 289.24800000000005Q237.07200000000003 288.48 236.72000000000003 287.92Q236.36800000000002 287.36 236.27200000000002 287.2Q235.72800000000004 286.336 235.05600000000004 285.712Q234.38400000000004 285.088 233.58400000000003 285.056V284.736Q233.61600000000004 284.736 234.04800000000003 284.75199999999995Q234.48000000000002 284.768 235.05600000000004 284.736Q235.88800000000003 284.704 236.83200000000005 284.448Q237.77600000000004 284.192 238.56000000000003 283.456Q239.34400000000002 282.72 239.72800000000004 281.28Q239.82400000000004 280.96 239.87200000000004 280.48Q239.92000000000004 280.0 239.88800000000003 279.488Q239.85600000000002 277.28 238.78400000000005 276.048Q237.71200000000005 274.816 235.98400000000004 274.752Q235.24800000000002 274.688 234.44800000000004 274.704Q233.64800000000002 274.72 233.07200000000003 274.72Q232.49600000000004 274.72 232.43200000000004 274.72Q232.43200000000004 274.688 232.35200000000003 274.416Q232.27200000000002 274.144 232.192 273.872Q232.11200000000002 273.6 232.11200000000002 273.6ZM232.52800000000002 273.6V296.0H229.55200000000002V273.6ZM229.64800000000002 293.664V296.0H227.08800000000002V295.68Q227.08800000000002 295.68 227.29600000000002 295.68Q227.50400000000002 295.68 227.50400000000002 295.68Q228.33600000000004 295.68 228.92800000000005 295.08799999999997Q229.52000000000004 294.496 229.55200000000002 293.664ZM229.64800000000002 275.936H229.55200000000002Q229.52000000000004 275.104 228.92800000000005 274.512Q228.33600000000004 273.92 227.50400000000002 273.92Q227.50400000000002 273.92 227.29600000000002 273.92Q227.08800000000002 273.92 227.08800000000002 273.92V273.6H229.64800000000002ZM232.43200000000004 293.664H232.52800000000002Q232.52800000000002 294.496 233.13600000000002 295.08799999999997Q233.74400000000003 295.68 234.57600000000002 295.68Q234.60800000000003 295.68 234.78400000000005 295.68Q234.96000000000004 295.68 234.96000000000004 295.68V296.0H232.43200000000004Z" fill="#1A1A1A"/>
  <path d="M258.12800000000004 273.6V296.0H255.15200000000004V273.6ZM266.70400000000006 294.88 266.96000000000004 296.0H258.03200000000004V294.88ZM265.39200000000005 284.416V285.504H258.03200000000004V284.416ZM266.83200000000005 273.6V274.72H258.03200000000004V273.6ZM268.78400000000005 290.368 267.05600000000004 296.0H261.42400000000004L262.576 294.88Q264.24 294.88 265.36 294.32Q266.48 293.76 267.216 292.736Q267.95200000000006 291.712 268.46400000000006 290.368ZM265.39200000000005 285.44V287.872H265.07200000000006V287.456Q265.07200000000006 286.656 264.528 286.08000000000004Q263.98400000000004 285.504 263.15200000000004 285.504V285.44ZM265.39200000000005 282.048V284.48H263.15200000000004V284.416Q263.98400000000004 284.384 264.528 283.808Q265.07200000000006 283.23199999999997 265.07200000000006 282.432V282.048ZM266.83200000000005 274.624V277.568H266.51200000000006V277.056Q266.51200000000006 276.064 265.85600000000005 275.39200000000005Q265.20000000000005 274.72 264.17600000000004 274.688V274.624ZM266.83200000000005 273.024V273.952L262.92800000000005 273.6Q263.63200000000006 273.6 264.41600000000005 273.504Q265.20000000000005 273.408 265.87200000000007 273.28Q266.54400000000004 273.152 266.83200000000005 273.024ZM255.24800000000005 293.664V296.0H252.68800000000005V295.68Q252.68800000000005 295.68 252.89600000000004 295.68Q253.10400000000004 295.68 253.10400000000004 295.68Q253.93600000000004 295.68 254.52800000000002 295.08799999999997Q255.12000000000003 294.496 255.15200000000004 293.664ZM255.24800000000005 275.936H255.15200000000004Q255.15200000000004 275.104 254.54400000000004 274.512Q253.93600000000004 273.92 253.10400000000004 273.92Q253.10400000000004 273.92 252.91200000000003 273.92Q252.72000000000003 273.92 252.72000000000003 273.92L252.68800000000005 273.6H255.24800000000005Z" fill="#1A1A1A"/>
  <path d="M282.32000000000005 273.152Q282.86400000000003 273.152 283.56800000000004 273.216Q284.27200000000005 273.28 284.9920000000001 273.392Q285.71200000000005 273.504 286.27200000000005 273.616Q286.83200000000005 273.728 287.0880000000001 273.856L286.96000000000004 277.664H286.6720000000001Q286.6720000000001 276.096 285.5520000000001 275.168Q284.4320000000001 274.24 282.73600000000005 274.24Q280.9440000000001 274.24 279.84000000000003 275.28Q278.73600000000005 276.32 278.73600000000005 277.728Q278.70400000000006 278.432 279.10400000000004 279.216Q279.5040000000001 280.0 280.33600000000007 280.672L286.5760000000001 285.888Q287.6960000000001 286.752 288.1600000000001 287.88800000000003Q288.6240000000001 289.024 288.59200000000004 290.24Q288.5280000000001 293.056 286.70400000000006 294.75199999999995Q284.88000000000005 296.448 281.77600000000007 296.448Q280.78400000000005 296.448 279.648 296.256Q278.51200000000006 296.064 277.5200000000001 295.664Q276.5280000000001 295.264 275.9200000000001 294.624Q275.76000000000005 294.048 275.77600000000007 293.2Q275.79200000000003 292.352 275.9680000000001 291.456Q276.14400000000006 290.56 276.4320000000001 289.856H276.7200000000001Q276.56000000000006 291.488 277.1840000000001 292.76800000000003Q277.80800000000005 294.048 279.00800000000004 294.736Q280.2080000000001 295.424 281.77600000000007 295.36Q283.66400000000004 295.296 284.8960000000001 294.192Q286.12800000000004 293.088 286.12800000000004 291.296Q286.12800000000004 290.368 285.71200000000005 289.6Q285.29600000000005 288.832 284.4320000000001 288.224L278.4800000000001 283.168Q277.26400000000007 282.272 276.75200000000007 281.056Q276.24000000000007 279.84 276.30400000000003 278.624Q276.36800000000005 277.184 277.07200000000006 275.92Q277.77600000000007 274.656 279.10400000000004 273.904Q280.4320000000001 273.152 282.32000000000005 273.152ZM287.0880000000001 273.472V274.144H284.2080000000001V273.472Z" fill="#1A1A1A"/>
  <path d="M316.56000000000006 273.6V296.0H313.58400000000006V273.6ZM301.39200000000005 273.6V296.0H298.41600000000005V273.6ZM313.87200000000007 284.352V285.44H301.07200000000006V284.352ZM298.51200000000006 293.664V296.0H295.95200000000006V295.68Q295.95200000000006 295.68 296.1600000000001 295.68Q296.36800000000005 295.68 296.36800000000005 295.68Q297.20000000000005 295.68 297.79200000000003 295.08799999999997Q298.38400000000007 294.496 298.41600000000005 293.664ZM298.51200000000006 275.936H298.41600000000005Q298.38400000000007 275.104 297.79200000000003 274.512Q297.20000000000005 273.92 296.36800000000005 273.92Q296.36800000000005 273.92 296.1600000000001 273.92Q295.95200000000006 273.92 295.95200000000006 273.92V273.6H298.51200000000006ZM301.29600000000005 293.664H301.39200000000005Q301.42400000000004 294.496 302.0160000000001 295.08799999999997Q302.60800000000006 295.68 303.44000000000005 295.68Q303.44000000000005 295.68 303.63200000000006 295.68Q303.82400000000007 295.68 303.85600000000005 295.68V296.0H301.29600000000005ZM301.29600000000005 275.936V273.6H303.85600000000005V273.92Q303.82400000000007 273.92 303.63200000000006 273.92Q303.44000000000005 273.92 303.44000000000005 273.92Q302.60800000000006 273.92 302.0160000000001 274.512Q301.42400000000004 275.104 301.39200000000005 275.936ZM313.68000000000006 293.664V296.0H311.12000000000006V295.68Q311.15200000000004 295.68 311.34400000000005 295.68Q311.53600000000006 295.68 311.53600000000006 295.68Q312.36800000000005 295.68 312.97600000000006 295.08799999999997Q313.58400000000006 294.496 313.58400000000006 293.664ZM313.68000000000006 275.936H313.58400000000006Q313.58400000000006 275.104 312.97600000000006 274.512Q312.36800000000005 273.92 311.53600000000006 273.92Q311.53600000000006 273.92 311.34400000000005 273.92Q311.15200000000004 273.92 311.12000000000006 273.92V273.6H313.68000000000006ZM316.46400000000006 293.664H316.56000000000006Q316.59200000000004 294.496 317.1840000000001 295.08799999999997Q317.77600000000007 295.68 318.60800000000006 295.68Q318.60800000000006 295.68 318.81600000000003 295.68Q319.02400000000006 295.68 319.02400000000006 295.68V296.0H316.46400000000006ZM316.46400000000006 275.936V273.6H319.02400000000006V273.92Q319.02400000000006 273.92 318.81600000000003 273.92Q318.60800000000006 273.92 318.60800000000006 273.92Q317.77600000000007 273.92 317.1840000000001 274.512Q316.59200000000004 275.104 316.56000000000006 275.936Z" fill="#1A1A1A"/>
  <path d="M336.4960000000001 296.512 326.3520000000001 273.792H330.09600000000006L337.58400000000006 292.416ZM336.4960000000001 296.512 336.27200000000005 293.728 344.65600000000006 273.696H346.70400000000006L338.09600000000006 292.928Q338.09600000000006 292.992 337.88800000000003 293.424Q337.68000000000006 293.856 337.4240000000001 294.464Q337.16800000000006 295.072 336.9920000000001 295.648Q336.8160000000001 296.224 336.78400000000005 296.512ZM343.76000000000005 275.904Q344.1120000000001 274.944 343.63200000000006 274.432Q343.15200000000004 273.92 342.5440000000001 273.92H342.2560000000001V273.6H348.8160000000001V273.92Q348.8160000000001 273.92 348.6720000000001 273.92Q348.5280000000001 273.92 348.5280000000001 273.92Q347.82400000000007 273.92 347.02400000000006 274.384Q346.22400000000005 274.848 345.71200000000005 275.936ZM330.9600000000001 275.904 327.31200000000007 275.936Q326.83200000000005 274.848 326.03200000000004 274.384Q325.2320000000001 273.92 324.4960000000001 273.92Q324.4960000000001 273.92 324.36800000000005 273.92Q324.24000000000007 273.92 324.24000000000007 273.92V273.6H332.4320000000001V273.92H332.14400000000006Q331.53600000000006 273.92 331.07200000000006 274.432Q330.60800000000006 274.944 330.9600000000001 275.904Z" fill="#1A1A1A"/>
  <path d="M360.27200000000005 273.088 370.09600000000006 295.808H366.3520000000001L359.21600000000007 277.184ZM353.39200000000005 293.664Q353.16800000000006 294.304 353.3280000000001 294.75199999999995Q353.48800000000006 295.2 353.85600000000005 295.44Q354.22400000000005 295.68 354.60800000000006 295.68H354.8960000000001V296.0H348.33600000000007V295.68Q348.33600000000007 295.68 348.4800000000001 295.68Q348.6240000000001 295.68 348.6240000000001 295.68Q349.36000000000007 295.68 350.14400000000006 295.216Q350.92800000000005 294.752 351.44000000000005 293.664ZM360.27200000000005 273.088 360.5280000000001 275.872 352.5280000000001 295.904H350.4480000000001L358.6720000000001 276.672Q358.70400000000006 276.608 358.91200000000003 276.17600000000004Q359.12000000000006 275.744 359.36000000000007 275.136Q359.6000000000001 274.528 359.7920000000001 273.952Q359.9840000000001 273.376 359.9840000000001 273.088ZM364.4000000000001 287.648V288.736H354.60800000000006V287.648ZM365.5200000000001 293.664H369.1360000000001Q369.6480000000001 294.752 370.4320000000001 295.216Q371.21600000000007 295.68 371.95200000000006 295.68Q371.95200000000006 295.68 372.08000000000004 295.68Q372.2080000000001 295.68 372.2080000000001 295.68V296.0H364.0160000000001V295.68H364.3040000000001Q364.9440000000001 295.68 365.4240000000001 295.15200000000004Q365.90400000000005 294.624 365.5200000000001 293.664Z" fill="#1A1A1A"/>
  <path d="M382.4800000000001 273.6H386.8640000000001Q388.3040000000001 273.6 389.5520000000001 273.98400000000004Q390.80000000000007 274.368 391.68000000000006 275.12Q392.56000000000006 275.872 393.07200000000006 276.992Q393.58400000000006 278.112 393.58400000000006 279.616Q393.58400000000006 281.088 392.91200000000003 282.48Q392.24000000000007 283.872 391.0400000000001 284.76800000000003Q389.8400000000001 285.664 388.2080000000001 285.728Q388.9120000000001 285.984 389.6160000000001 286.72Q390.3200000000001 287.456 390.8320000000001 288.16Q390.8320000000001 288.192 391.2320000000001 288.76800000000003Q391.63200000000006 289.344 392.24000000000007 290.192Q392.84800000000007 291.04 393.4720000000001 291.872Q394.09600000000006 292.704 394.5760000000001 293.248Q395.21600000000007 294.016 395.84000000000003 294.544Q396.46400000000006 295.072 397.1840000000001 295.376Q397.9040000000001 295.68 398.80000000000007 295.68V296.0H396.56000000000006Q395.02400000000006 296.0 393.84000000000003 295.6Q392.65600000000006 295.2 391.7920000000001 294.512Q390.9280000000001 293.824 390.3200000000001 293.024Q390.19200000000006 292.8 389.7920000000001 292.192Q389.3920000000001 291.584 388.8960000000001 290.8Q388.4000000000001 290.016 387.9200000000001 289.24800000000005Q387.44000000000005 288.48 387.0880000000001 287.92Q386.7360000000001 287.36 386.6400000000001 287.2Q386.09600000000006 286.336 385.4240000000001 285.712Q384.75200000000007 285.088 383.9520000000001 285.056V284.736Q383.9840000000001 284.736 384.41600000000005 284.75199999999995Q384.84800000000007 284.768 385.4240000000001 284.736Q386.2560000000001 284.704 387.20000000000005 284.448Q388.14400000000006 284.192 388.9280000000001 283.456Q389.7120000000001 282.72 390.09600000000006 281.28Q390.19200000000006 280.96 390.24000000000007 280.48Q390.28800000000007 280.0 390.2560000000001 279.488Q390.2240000000001 277.28 389.1520000000001 276.048Q388.0800000000001 274.816 386.3520000000001 274.752Q385.6160000000001 274.688 384.8160000000001 274.704Q384.0160000000001 274.72 383.44000000000005 274.72Q382.8640000000001 274.72 382.80000000000007 274.72Q382.80000000000007 274.688 382.7200000000001 274.416Q382.6400000000001 274.144 382.56000000000006 273.872Q382.4800000000001 273.6 382.4800000000001 273.6ZM382.8960000000001 273.6V296.0H379.9200000000001V273.6ZM380.0160000000001 293.664V296.0H377.4560000000001V295.68Q377.4560000000001 295.68 377.6640000000001 295.68Q377.87200000000007 295.68 377.87200000000007 295.68Q378.70400000000006 295.68 379.29600000000005 295.08799999999997Q379.8880000000001 294.496 379.9200000000001 293.664ZM380.0160000000001 275.936H379.9200000000001Q379.8880000000001 275.104 379.29600000000005 274.512Q378.70400000000006 273.92 377.87200000000007 273.92Q377.87200000000007 273.92 377.6640000000001 273.92Q377.4560000000001 273.92 377.4560000000001 273.92V273.6H380.0160000000001ZM382.80000000000007 293.664H382.8960000000001Q382.8960000000001 294.496 383.5040000000001 295.08799999999997Q384.1120000000001 295.68 384.9440000000001 295.68Q384.97600000000006 295.68 385.15200000000004 295.68Q385.3280000000001 295.68 385.3280000000001 295.68V296.0H382.80000000000007Z" fill="#1A1A1A"/>
  <path d="M412.75200000000007 273.088 422.5760000000001 295.808H418.8320000000001L411.6960000000001 277.184ZM405.87200000000007 293.664Q405.6480000000001 294.304 405.8080000000001 294.75199999999995Q405.9680000000001 295.2 406.33600000000007 295.44Q406.70400000000006 295.68 407.0880000000001 295.68H407.3760000000001V296.0H400.8160000000001V295.68Q400.8160000000001 295.68 400.9600000000001 295.68Q401.1040000000001 295.68 401.1040000000001 295.68Q401.8400000000001 295.68 402.6240000000001 295.216Q403.4080000000001 294.752 403.9200000000001 293.664ZM412.75200000000007 273.088 413.0080000000001 275.872 405.0080000000001 295.904H402.9280000000001L411.1520000000001 276.672Q411.1840000000001 276.608 411.39200000000005 276.17600000000004Q411.6000000000001 275.744 411.8400000000001 275.136Q412.0800000000001 274.528 412.2720000000001 273.952Q412.4640000000001 273.376 412.4640000000001 273.088ZM416.8800000000001 287.648V288.736H407.0880000000001V287.648ZM418.0000000000001 293.664H421.6160000000001Q422.1280000000001 294.752 422.9120000000001 295.216Q423.6960000000001 295.68 424.4320000000001 295.68Q424.4320000000001 295.68 424.56000000000006 295.68Q424.6880000000001 295.68 424.6880000000001 295.68V296.0H416.4960000000001V295.68H416.7840000000001Q417.4240000000001 295.68 417.9040000000001 295.15200000000004Q418.38400000000007 294.624 418.0000000000001 293.664Z" fill="#1A1A1A"/>
  <path d="M464.3040000000001 273.152 464.5600000000001 275.744 456.0480000000001 293.152Q456.0480000000001 293.152 455.77600000000007 293.712Q455.5040000000001 294.272 455.2320000000001 295.03999999999996Q454.9600000000001 295.808 454.89600000000013 296.512H454.5760000000001L453.8720000000001 294.24ZM443.9520000000001 293.664V296.0H440.4000000000001V295.68Q440.4320000000001 295.68 440.6720000000001 295.68Q440.9120000000001 295.68 440.9120000000001 295.68Q441.7760000000001 295.68 442.4480000000001 295.15200000000004Q443.1200000000001 294.624 443.2480000000001 293.664ZM445.0400000000001 294.176Q445.0400000000001 294.208 445.0400000000001 294.24Q445.0400000000001 294.272 445.0400000000001 294.336Q445.0400000000001 294.848 445.40800000000013 295.28Q445.7760000000001 295.712 446.2880000000001 295.712H446.7680000000001V296.0H444.8160000000001V294.176ZM445.7440000000001 273.152H446.0320000000001L446.8320000000001 275.488L444.8800000000001 296.0H442.9600000000001ZM446.0320000000001 273.152 455.6640000000001 292.16 454.5760000000001 296.512 445.3600000000001 278.08ZM464.5920000000001 273.152 467.4400000000001 296.0H464.0480000000001L462.3520000000001 278.176L464.3040000000001 273.152ZM466.48000000000013 293.664H467.1520000000001Q467.3120000000001 294.624 467.98400000000015 295.15200000000004Q468.6560000000001 295.68 469.4880000000001 295.68Q469.4880000000001 295.68 469.74400000000014 295.68Q470.0000000000001 295.68 470.0000000000001 295.68V296.0H466.48000000000013ZM463.8880000000001 294.176H464.1120000000001V296.0H462.1600000000001V295.712H462.6400000000001Q463.1840000000001 295.712 463.53600000000006 295.28Q463.8880000000001 294.848 463.8880000000001 294.336Q463.8880000000001 294.272 463.8880000000001 294.24Q463.8880000000001 294.208 463.8880000000001 294.176Z" fill="#1A1A1A"/>
  <path d="M485.6160000000001 273.088 495.4400000000001 295.808H491.69600000000014L484.5600000000001 277.184ZM478.7360000000001 293.664Q478.5120000000001 294.304 478.67200000000014 294.75199999999995Q478.8320000000001 295.2 479.2000000000001 295.44Q479.5680000000001 295.68 479.9520000000001 295.68H480.2400000000001V296.0H473.6800000000001V295.68Q473.6800000000001 295.68 473.8240000000001 295.68Q473.96800000000013 295.68 473.96800000000013 295.68Q474.7040000000001 295.68 475.4880000000001 295.216Q476.2720000000001 294.752 476.7840000000001 293.664ZM485.6160000000001 273.088 485.8720000000001 275.872 477.8720000000001 295.904H475.79200000000014L484.01600000000013 276.672Q484.0480000000001 276.608 484.2560000000001 276.17600000000004Q484.4640000000001 275.744 484.7040000000001 275.136Q484.94400000000013 274.528 485.13600000000014 273.952Q485.32800000000015 273.376 485.32800000000015 273.088ZM489.74400000000014 287.648V288.736H479.9520000000001V287.648ZM490.86400000000015 293.664H494.48000000000013Q494.99200000000013 294.752 495.7760000000001 295.216Q496.5600000000001 295.68 497.2960000000001 295.68Q497.2960000000001 295.68 497.4240000000001 295.68Q497.55200000000013 295.68 497.55200000000013 295.68V296.0H489.3600000000001V295.68H489.64800000000014Q490.2880000000001 295.68 490.76800000000014 295.15200000000004Q491.2480000000001 294.624 490.86400000000015 293.664Z" fill="#1A1A1A"/>
  <path d="M504.8800000000001 273.12 524.0800000000002 292.832 524.4000000000001 296.448 505.20000000000016 276.76800000000003ZM504.9760000000001 293.728V296.0H502.3200000000001V295.68Q502.3200000000001 295.68 502.6080000000001 295.68Q502.89600000000013 295.68 502.9280000000001 295.68Q503.7280000000001 295.68 504.3040000000001 295.10400000000004Q504.8800000000001 294.528 504.8800000000001 293.728ZM507.37600000000015 293.728Q507.37600000000015 294.528 507.9520000000001 295.10400000000004Q508.52800000000013 295.68 509.32800000000015 295.68Q509.3600000000001 295.68 509.64800000000014 295.68Q509.93600000000015 295.68 509.93600000000015 295.68V296.0H507.28000000000014V293.728ZM504.8800000000001 273.12 507.3440000000001 275.936 507.37600000000015 296.0H504.8800000000001V277.12Q504.8800000000001 275.424 504.72000000000014 274.272Q504.5600000000001 273.12 504.5600000000001 273.12ZM524.3680000000002 273.6V292.352Q524.3680000000002 293.44 524.4480000000001 294.384Q524.5280000000001 295.328 524.6080000000002 295.888Q524.6880000000001 296.448 524.6880000000001 296.448H524.4000000000001L521.9040000000001 293.6V273.6ZM526.9280000000001 273.6V273.92Q526.9280000000001 273.92 526.6400000000001 273.92Q526.3520000000001 273.92 526.3520000000001 273.92Q525.5520000000001 273.92 524.9760000000001 274.48Q524.4000000000001 275.04 524.3680000000002 275.872H524.2720000000002V273.6ZM519.3120000000001 273.6H521.9680000000002V275.872H521.9040000000001Q521.8720000000002 275.04 521.3120000000001 274.48Q520.7520000000002 273.92 519.9200000000002 273.92Q519.9200000000002 273.92 519.6320000000002 273.92Q519.3440000000002 273.92 519.3120000000001 273.92Z" fill="#1A1A1A"/>
  <path d="M544.6560000000002 273.6Q548.2080000000002 273.6 550.8320000000001 274.976Q553.4560000000001 276.352 554.9280000000001 278.88Q556.4000000000002 281.408 556.4000000000002 284.8Q556.4000000000002 288.192 554.9280000000001 290.704Q553.4560000000001 293.216 550.8320000000001 294.608Q548.2080000000002 296.0 544.6560000000002 296.0H537.5520000000001L537.5200000000002 294.912Q537.8400000000001 294.912 538.6240000000001 294.912Q539.4080000000001 294.912 540.4320000000001 294.912Q541.4560000000001 294.912 542.3840000000001 294.912Q543.3120000000001 294.912 543.9200000000001 294.912Q544.5280000000001 294.912 544.5280000000001 294.912Q547.1200000000002 294.912 549.0400000000002 293.664Q550.9600000000002 292.416 552.0160000000002 290.144Q553.0720000000002 287.872 553.0720000000002 284.8Q553.0720000000002 281.728 552.0160000000002 279.456Q550.9600000000002 277.184 549.0400000000002 275.93600000000004Q547.1200000000002 274.688 544.5280000000001 274.688Q544.5280000000001 274.688 543.8880000000001 274.688Q543.2480000000002 274.688 542.2720000000002 274.688Q541.2960000000002 274.688 540.2560000000002 274.688Q539.2160000000002 274.688 538.3680000000002 274.688Q537.5200000000002 274.688 537.2000000000002 274.688V273.6ZM538.9920000000002 273.6V296.0H536.0160000000002V273.6ZM536.1120000000002 293.664V296.0H533.5520000000001V295.68Q533.5520000000001 295.68 533.7600000000002 295.68Q533.9680000000002 295.68 533.9680000000002 295.68Q534.8000000000002 295.68 535.3920000000002 295.08799999999997Q535.9840000000002 294.496 536.0160000000002 293.664ZM536.1120000000002 275.936H536.0160000000002Q536.0160000000002 275.104 535.4080000000001 274.512Q534.8000000000002 273.92 533.9680000000002 273.92Q533.9680000000002 273.92 533.7760000000002 273.92Q533.5840000000002 273.92 533.5840000000002 273.92L533.5520000000001 273.6H536.1120000000002Z" fill="#1A1A1A"/>
  <path d="M568.4000000000002 273.6V296.0H565.4240000000002V273.6ZM565.5200000000002 293.664V296.0H562.9600000000002V295.68Q562.9600000000002 295.68 563.1680000000001 295.68Q563.3760000000002 295.68 563.3760000000002 295.68Q564.2080000000002 295.68 564.8000000000002 295.08799999999997Q565.3920000000002 294.496 565.4240000000002 293.664ZM565.5200000000002 275.936H565.4240000000002Q565.3920000000002 275.104 564.8000000000002 274.512Q564.2080000000002 273.92 563.3760000000002 273.92Q563.3760000000002 273.92 563.1680000000001 273.92Q562.9600000000002 273.92 562.9600000000002 273.92V273.6H565.5200000000002ZM568.3040000000002 293.664H568.4000000000002Q568.4320000000002 294.496 569.0240000000002 295.08799999999997Q569.6160000000002 295.68 570.4480000000002 295.68Q570.4480000000002 295.68 570.6400000000002 295.68Q570.8320000000002 295.68 570.8640000000001 295.68V296.0H568.3040000000002ZM568.3040000000002 275.936V273.6H570.8640000000001V273.92Q570.8320000000002 273.92 570.6400000000002 273.92Q570.4480000000002 273.92 570.4480000000002 273.92Q569.6160000000002 273.92 569.0240000000002 274.512Q568.4320000000002 275.104 568.4000000000002 275.936Z" fill="#1A1A1A"/>
  <path d="M583.3440000000002 273.6H587.7280000000002Q589.1680000000001 273.6 590.4160000000002 273.98400000000004Q591.6640000000002 274.368 592.5440000000002 275.12Q593.4240000000002 275.872 593.9360000000001 276.992Q594.4480000000002 278.112 594.4480000000002 279.616Q594.4480000000002 281.088 593.7760000000002 282.48Q593.1040000000002 283.872 591.9040000000002 284.76800000000003Q590.7040000000002 285.664 589.0720000000001 285.728Q589.7760000000002 285.984 590.4800000000002 286.72Q591.1840000000002 287.456 591.6960000000001 288.16Q591.6960000000001 288.192 592.0960000000002 288.76800000000003Q592.4960000000002 289.344 593.1040000000003 290.192Q593.7120000000002 291.04 594.3360000000002 291.872Q594.9600000000002 292.704 595.4400000000002 293.248Q596.0800000000002 294.016 596.7040000000002 294.544Q597.3280000000002 295.072 598.0480000000002 295.376Q598.7680000000001 295.68 599.6640000000002 295.68V296.0H597.4240000000002Q595.8880000000001 296.0 594.7040000000002 295.6Q593.5200000000002 295.2 592.6560000000002 294.512Q591.7920000000001 293.824 591.1840000000002 293.024Q591.0560000000002 292.8 590.6560000000002 292.192Q590.2560000000002 291.584 589.7600000000002 290.8Q589.2640000000001 290.016 588.7840000000001 289.24800000000005Q588.3040000000002 288.48 587.9520000000002 287.92Q587.6000000000001 287.36 587.5040000000001 287.2Q586.9600000000002 286.336 586.2880000000002 285.712Q585.6160000000002 285.088 584.8160000000001 285.056V284.736Q584.8480000000002 284.736 585.2800000000002 284.75199999999995Q585.7120000000002 284.768 586.2880000000001 284.736Q587.1200000000001 284.704 588.0640000000001 284.448Q589.0080000000002 284.192 589.7920000000001 283.456Q590.5760000000001 282.72 590.9600000000002 281.28Q591.0560000000002 280.96 591.1040000000002 280.48Q591.1520000000002 280.0 591.1200000000001 279.488Q591.0880000000002 277.28 590.0160000000002 276.048Q588.9440000000002 274.816 587.2160000000001 274.752Q586.4800000000001 274.688 585.6800000000002 274.704Q584.8800000000002 274.72 584.3040000000002 274.72Q583.7280000000002 274.72 583.6640000000002 274.72Q583.6640000000002 274.688 583.5840000000002 274.416Q583.5040000000001 274.144 583.4240000000002 273.872Q583.3440000000002 273.6 583.3440000000002 273.6ZM583.7600000000002 273.6V296.0H580.7840000000002V273.6ZM580.8800000000002 293.664V296.0H578.3200000000002V295.68Q578.3200000000002 295.68 578.5280000000002 295.68Q578.7360000000002 295.68 578.7360000000002 295.68Q579.5680000000002 295.68 580.1600000000002 295.08799999999997Q580.7520000000002 294.496 580.7840000000002 293.664ZM580.8800000000002 275.936H580.7840000000002Q580.7520000000002 275.104 580.1600000000002 274.512Q579.5680000000002 273.92 578.7360000000002 273.92Q578.7360000000002 273.92 578.5280000000002 273.92Q578.3200000000002 273.92 578.3200000000002 273.92V273.6H580.8800000000002ZM583.6640000000002 293.664H583.7600000000002Q583.7600000000002 294.496 584.3680000000002 295.08799999999997Q584.9760000000002 295.68 585.8080000000002 295.68Q585.8400000000001 295.68 586.0160000000001 295.68Q586.1920000000001 295.68 586.1920000000001 295.68V296.0H583.6640000000002Z" fill="#1A1A1A"/>
  <line x1="200" y1="216" x2="440" y2="216" stroke="#B8B1A4" stroke-width="1.5"/>
  <circle cx="49.5" cy="303.5" r="4" fill="#C8A15A"/>
</svg>
