<svg xmlns="http://www.w3.org/2000/svg" viewBox="0 0 512 512">
  <circle cx="256" cy="256" r="230" fill="none" stroke="#1A1A1A" stroke-width="5"/>
  <circle cx="256" cy="256" r="195" fill="none" stroke="#1A1A1A" stroke-width="2.5"/>
  <circle cx="310.77" cy="51.61" r="12.2" fill="none" stroke="#1A1A1A" stroke-width="2.2"/>
  <circle cx="310.77" cy="51.61" r="8.8" fill="#C8A15A"/>
  <circle cx="405.62" cy="106.38" r="12.2" fill="none" stroke="#1A1A1A" stroke-width="2.2"/>
  <circle cx="405.62" cy="106.38" r="8.8" fill="#C8A15A"/>
  <circle cx="460.39" cy="201.23" r="12.2" fill="none" stroke="#1A1A1A" stroke-width="2.2"/>
  <circle cx="460.39" cy="201.23" r="8.8" fill="#C8A15A"/>
  <circle cx="460.39" cy="310.77" r="12.2" fill="none" stroke="#1A1A1A" stroke-width="2.2"/>
  <circle cx="460.39" cy="310.77" r="8.8" fill="#C8A15A"/>
  <circle cx="405.62" cy="405.62" r="12.2" fill="none" stroke="#1A1A1A" stroke-width="2.2"/>
  <circle cx="405.62" cy="405.62" r="8.8" fill="#C8A15A"/>
  <circle cx="310.77" cy="460.39" r="12.2" fill="none" stroke="#1A1A1A" stroke-width="2.2"/>
  <circle cx="310.77" cy="460.39" r="8.8" fill="#C8A15A"/>
  <circle cx="201.23" cy="460.39" r="12.2" fill="none" stroke="#1A1A1A" stroke-width="2.2"/>
  <circle cx="201.23" cy="460.39" r="8.8" fill="#C8A15A"/>
  <circle cx="106.38" cy="405.62" r="12.2" fill="none" stroke="#1A1A1A" stroke-width="2.2"/>
  <circle cx="106.38" cy="405.62" r="8.8" fill="#C8A15A"/>
  <circle cx="51.61" cy="310.77" r="12.2" fill="none" stroke="#1A1A1A" stroke-width="2.2"/>
  <circle cx="51.61" cy="310.77" r="8.8" fill="#C8A15A"/>
  <circle cx="51.61" cy="201.23" r="12.2" fill="none" stroke="#1A1A1A" stroke-width="2.2"/>
  <circle cx="51.61" cy="201.23" r="8.8" fill="#C8A15A"/>
  <circle cx="106.38" cy="106.38" r="12.2" fill="none" stroke="#1A1A1A" stroke-width="2.2"/>
  <circle cx="106.38" cy="106.38" r="8.8" fill="#C8A15A"/>
  <circle cx="201.23" cy="51.61" r="12.2" fill="none" stroke="#1A1A1A" stroke-width="2.2"/>
  <circle cx="201.23" cy="51.61" r="8.8" fill="#C8A15A"/>
  <path d="M 239.44 184.29 C 222.36 149.64 245.03 118.11 256 113.4 C 266.97 118.11 289.64 149.64 272.56 184.29 Z" fill="#1A1A1A" stroke="#F7F3E9" stroke-width="4" stroke-linejoin="round"/>
  <path d="M 277.52 185.62 C 280.05 147.07 315.44 131.1 327.3 132.5 C 334.45 142.07 338.31 180.71 306.2 202.17 Z" fill="#1A1A1A" stroke="#F7F3E9" stroke-width="4" stroke-linejoin="round"/>
  <path d="M 309.83 205.8 C 331.29 173.69 369.93 177.55 379.5 184.7 C 380.9 196.56 364.93 231.95 326.38 234.48 Z" fill="#1A1A1A" stroke="#F7F3E9" stroke-width="4" stroke-linejoin="round"/>
  <path d="M 327.71 239.44 C 362.36 222.36 393.89 245.03 398.6 256 C 393.89 266.97 362.36 289.64 327.71 272.56 Z" fill="#1A1A1A" stroke="#F7F3E9" stroke-width="4" stroke-linejoin="round"/>
  <path d="M 326.38 277.52 C 364.93 280.05 380.9 315.44 379.5 327.3 C 369.93 334.45 331.29 338.31 309.83 306.2 Z" fill="#1A1A1A" stroke="#F7F3E9" stroke-width="4" stroke-linejoin="round"/>
  <path d="M 306.2 309.83 C 338.31 331.29 334.45 369.93 327.3 379.5 C 315.44 380.9 280.05 364.93 277.52 326.38 Z" fill="#1A1A1A" stroke="#F7F3E9" stroke-width="4" stroke-linejoin="round"/>
  <path d="M 272.56 327.71 C 289.64 362.36 266.97 393.89 256 398.6 C 245.03 393.89 222.36 362.36 239.44 327.71 Z" fill="#1A1A1A" stroke="#F7F3E9" stroke-width="4" stroke-linejoin="round"/>
  <path d="M 234.48 326.38 C 231.95 364.93 196.56 380.9 184.7 379.5 C 177.55 369.93 173.69 331.29 205.8 309.83 Z" fill="#1A1A1A" stroke="#F7F3E9" stroke-width="4" stroke-linejoin="round"/>
  <path d="M 202.17 306.2 C 180.71 338.31 142.07 334.45 132.5 327.3 C 131.1 315.44 147.07 280.05 185.62 277.52 Z" fill="#1A1A1A" stroke="#F7F3E9" stroke-width="4" stroke-linejoin="round"/>
  <path d="M 184.29 272.56 C 149.64 289.64 118.11 266.97 113.4 256 C 118.11 245.03 149.64 222.36 184.29 239.44 Z" fill="#1A1A1A" stroke="#F7F3E9" stroke-width="4" stroke-linejoin="round"/>
  <path d="M 185.62 234.48 C 147.07 231.95 131.1 196.56 132.5 184.7 C 142.07 177.55 180.71 173.69 202.17 205.8 Z" fill="#1A1A1A" stroke="#F7F3E9" stroke-width="4" stroke-linejoin="round"/>
  <path d="M 205.8 202.17 C 173.69 180.71 177.55 142.07 184.7 132.5 C 196.56 131.1 231.95 147.07 234.48 185.62 Z" fill="#1A1A1A" stroke="#F7F3E9" stroke-width="4" stroke-linejoin="round"/>
  <path d="M 256 172.4 L 256 153.42" fill="none" stroke="#F7F3E9" stroke-width="2.2" stroke-linecap="round" stroke-linejoin="round"/>
  <path d="M 297.8 183.6 L 307.29 167.16" fill="none" stroke="#F7F3E9" stroke-width="2.2" stroke-linecap="round" stroke-linejoin="round"/>
  <path d="M 328.4 214.2 L 344.84 204.71" fill="none" stroke="#F7F3E9" stroke-width="2.2" stroke-linecap="round" stroke-linejoin="round"/>
  <path d="M 339.6 256 L 358.58 256" fill="none" stroke="#F7F3E9" stroke-width="2.2" stroke-linecap="round" stroke-linejoin="round"/>
  <path d="M 328.4 297.8 L 344.84 307.29" fill="none" stroke="#F7F3E9" stroke-width="2.2" stroke-linecap="round" stroke-linejoin="round"/>
  <path d="M 297.8 328.4 L 307.29 344.84" fill="none" stroke="#F7F3E9" stroke-width="2.2" stroke-linecap="round" stroke-linejoin="round"/>
  <path d="M 256 339.6 L 256 358.58" fill="none" stroke="#F7F3E9" stroke-width="2.2" stroke-linecap="round" stroke-linejoin="round"/>
  <path d="M 214.2 328.4 L 204.71 344.84" fill="none" stroke="#F7F3E9" stroke-width="2.2" stroke-linecap="round" stroke-linejoin="round"/>
  <path d="M 183.6 297.8 L 167.16 307.29" fill="none" stroke="#F7F3E9" stroke-width="2.2" stroke-linecap="round" stroke-linejoin="round"/>
  <path d="M 172.4 256 L 153.42 256" fill="none" stroke="#F7F3E9" stroke-width="2.2" stroke-linecap="round" stroke-linejoin="round"/>
  <path d="M 183.6 214.2 L 167.16 204.71" fill="none" stroke="#F7F3E9" stroke-width="2.2" stroke-linecap="round" stroke-linejoin="round"/>
  <path d="M 214.2 183.6 L 204.71 167.16" fill="none" stroke="#F7F3E9" stroke-width="2.2" stroke-linecap="round" stroke-linejoin="round"/>
  <circle cx="256" cy="256" r="50.6" fill="none" stroke="#1A1A1A" stroke-width="3"/>
  <circle cx="256" cy="256" r="40" fill="#C8A15A"/>
</svg>
